<svg width="1849" height="463" viewBox="0 0 1849 463" fill="none" xmlns="http://www.w3.org/2000/svg">
<path d="M0.291279 14.5082H132.453V75.3918H65.6297V399.114H132.453V459.998H0.291279V14.5082ZM1848.01 459.998H1715.85V399.114H1782.67V75.3918H1715.85V14.5082H1848.01V459.998Z" fill="#A2EAE8"/>
<path d="M412.667 302.096V361H377.028C344.853 361 329.014 347.14 330.004 319.421C320.599 334.271 309.214 345.16 295.85 352.585C281.99 360.505 265.655 363.97 246.846 363.97C218.136 363.97 195.367 357.535 178.042 344.665C160.718 331.796 152.303 312.986 152.303 289.227C152.303 262.497 162.203 241.708 182.002 226.858C201.802 212.009 231.006 204.584 269.12 204.584H319.609V192.209C319.609 180.824 315.154 171.914 306.739 164.985C297.83 158.055 286.445 154.59 272.09 154.59C259.22 154.59 248.331 157.56 240.411 163.005C231.996 168.945 227.046 176.369 225.561 185.774H158.243C160.223 160.035 172.102 139.74 192.892 125.386C213.682 111.031 240.906 103.606 275.555 103.606C311.194 103.606 338.914 111.526 358.713 127.366C378.513 143.205 388.412 166.47 388.412 196.169V285.762C388.412 292.197 389.402 296.652 392.372 298.631C394.847 301.106 398.807 302.096 404.747 302.096H412.667ZM319.609 251.113H268.625C253.776 251.113 242.391 254.083 234.471 260.022C226.551 265.962 222.591 273.882 222.591 284.277C222.591 293.187 225.561 300.611 232.491 305.561C239.421 311.006 248.331 313.481 260.21 313.481C278.03 313.481 292.385 308.531 303.274 298.136C313.669 287.742 319.114 273.882 319.609 256.062V251.113ZM439.667 14.5082H509.46V361H439.667V14.5082ZM812.521 106.576V353.575C812.521 387.234 801.136 413.469 779.356 433.268C757.082 453.068 722.928 462.968 676.399 462.968C640.265 462.968 611.06 455.048 589.281 439.208C567.006 423.369 555.127 401.094 553.642 371.89H623.93C626.9 384.264 633.335 393.669 643.235 400.104C653.134 407.034 666.004 410.004 681.844 410.004C701.643 410.004 716.988 405.054 727.878 395.154C738.767 385.254 744.212 370.9 744.212 351.1V324.371C725.403 348.13 699.168 359.515 665.509 359.515C642.74 359.515 622.94 354.565 605.121 343.675C587.301 333.281 572.946 318.431 563.047 299.126C553.147 279.822 548.197 257.052 548.197 231.313C548.197 206.069 553.147 183.794 563.047 163.995C572.946 144.69 587.301 129.84 605.121 118.951C622.94 108.556 643.235 103.111 666.004 103.111C699.168 103.111 725.403 115.981 745.202 141.72L751.142 106.576H812.521ZM726.888 283.782C737.777 270.912 743.717 253.588 743.717 232.303C743.717 211.019 737.777 193.694 726.888 179.834C715.503 166.47 700.653 159.54 681.844 159.54C663.034 159.54 647.69 166.47 636.305 179.834C624.92 193.199 619.475 210.524 619.475 231.808C619.475 253.588 624.92 270.912 636.305 283.782C647.69 297.147 663.034 303.581 681.844 303.581C700.653 303.581 715.503 297.147 726.888 283.782ZM914.639 348.13C894.345 337.241 878.505 321.896 867.615 302.096C856.725 282.297 851.281 259.527 851.281 233.788C851.281 208.049 856.725 185.279 867.615 165.48C878.505 145.68 894.345 130.83 914.639 119.941C934.934 109.051 958.693 103.606 985.422 103.606C1012.15 103.606 1035.42 109.051 1055.71 119.941C1076.01 130.83 1091.84 145.68 1102.73 165.48C1113.62 185.279 1119.56 208.049 1119.56 233.788C1119.56 260.022 1113.62 282.792 1102.73 302.591C1091.84 322.391 1076.01 337.241 1055.71 348.13C1035.42 359.02 1012.15 363.97 985.422 363.97C958.693 363.97 934.934 359.02 914.639 348.13ZM1031.46 286.752C1042.84 273.387 1048.78 255.567 1048.78 233.788C1048.78 212.009 1042.84 194.684 1031.46 180.824C1020.07 167.46 1004.73 160.53 985.422 160.53C966.118 160.53 950.773 167.46 939.388 180.824C928.004 194.684 922.559 212.009 922.559 233.788C922.559 255.567 928.004 273.387 939.388 286.752C950.773 300.611 966.118 307.046 985.422 307.046C1004.73 307.046 1020.07 300.611 1031.46 286.752ZM1157.98 14.5082H1227.77V214.978L1327.76 106.576H1405.97L1315.39 206.069L1410.92 361H1330.24L1265.89 258.042L1227.77 299.126V361H1157.98V14.5082ZM1499.78 12.0332C1507.21 19.4581 1511.17 28.8629 1511.17 39.7526C1511.17 51.1373 1507.21 60.5421 1499.78 67.9669C1491.86 75.8867 1482.46 79.3517 1471.07 79.3517C1459.19 79.3517 1449.79 75.8867 1441.87 67.9669C1433.95 60.5421 1430.48 51.1373 1430.48 39.7526C1430.48 28.8629 1433.95 19.4581 1441.87 12.0332C1449.79 4.60842 1459.19 0.648509 1471.07 0.648509C1482.46 0.648509 1491.86 4.60842 1499.78 12.0332ZM1435.93 106.576H1505.72V361H1435.93V106.576ZM1570.69 165.48H1528.62V106.576H1570.69V35.2977H1640.49V106.576H1698.4V165.48H1640.49V276.852C1640.49 285.762 1641.97 292.197 1645.93 296.157C1649.89 300.116 1656.32 302.096 1665.23 302.096H1701.37V361H1643.46C1594.95 361 1570.69 336.746 1570.69 288.237V165.48Z" fill="white"/>
</svg>
