<?xml version="1.0" encoding="UTF-8"?>
<svg width="1848px" height="463px" viewBox="0 0 1848 463" version="1.1" xmlns="http://www.w3.org/2000/svg" xmlns:xlink="http://www.w3.org/1999/xlink">
    <title>Algokit-blue</title>
    <g id="Page-1" stroke="none" stroke-width="1" fill="none" fill-rule="evenodd">
        <g id="Algokit-blue" fill-rule="nonzero">
            <path d="M-1.13686838e-13,13.859 L132.162,13.859 L132.162,74.743 L65.339,74.743 L65.339,398.465 L132.162,398.465 L132.162,459.349 L-1.13686838e-13,459.349 L-1.13686838e-13,13.859 Z M1847.726,459.349 L1715.556,459.349 L1715.556,398.465 L1782.386,398.465 L1782.386,74.743 L1715.556,74.743 L1715.556,13.859 L1847.726,13.859 L1847.726,459.349 Z" id="Shape" fill="#A9A9F6"></path>
            <path d="M412.376,301.447 L412.376,360.351 L376.737,360.351 C344.563,360.351 328.723,346.491 329.713,318.772 C320.308,333.622 308.923,344.511 295.559,351.936 C281.699,359.856 265.364,363.321 246.555,363.321 C217.846,363.321 195.076,356.886 177.751,344.016 C160.427,331.147 152.012,312.337 152.012,288.578 C152.012,261.848 161.912,241.059 181.711,226.209 C201.511,211.36 230.715,203.935 268.829,203.935 L319.318,203.935 L319.318,191.56 C319.318,180.175 314.863,171.265 306.448,164.336 C297.539,157.406 286.154,153.941 271.799,153.941 C258.93,153.941 248.04,156.911 240.12,162.356 C231.705,168.296 226.755,175.72 225.27,185.125 L157.952,185.125 C159.932,159.386 171.812,139.091 192.601,124.737 C213.391,110.382 240.615,102.957 275.264,102.957 C310.903,102.957 338.623,110.877 358.422,126.717 C378.222,142.556 388.122,165.821 388.122,195.52 L388.122,285.113 C388.122,291.548 389.111,296.003 392.081,297.982 C394.556,300.457 398.516,301.447 404.456,301.447 L412.376,301.447 Z M319.318,250.464 L268.334,250.464 C253.485,250.464 242.1,253.434 234.18,259.373 C226.26,265.313 222.3,273.233 222.3,283.628 C222.3,292.538 225.27,299.962 232.2,304.912 C239.13,310.357 248.04,312.832 259.92,312.832 C277.739,312.832 292.094,307.882 302.984,297.487 C313.378,287.093 318.823,273.233 319.318,255.413 L319.318,250.464 Z M439.376,13.859 L509.169,13.859 L509.169,360.351 L439.376,360.351 L439.376,13.859 Z M812.226,105.927 L812.226,352.926 C812.226,386.585 800.846,412.82 779.066,432.619 C756.796,452.419 722.636,462.319 676.106,462.319 C639.976,462.319 610.766,454.399 588.986,438.559 C566.716,422.72 554.836,400.445 553.351,371.241 L623.636,371.241 C626.606,383.615 633.046,393.02 642.946,399.455 C652.846,406.385 665.716,409.355 681.556,409.355 C701.356,409.355 716.696,404.405 727.586,394.505 C738.476,384.605 743.926,370.251 743.926,350.451 L743.926,323.722 C725.116,347.481 698.876,358.866 665.216,358.866 C642.446,358.866 622.646,353.916 604.826,343.026 C587.006,332.632 572.655,317.782 562.756,298.477 C552.856,279.173 547.906,256.403 547.906,230.664 C547.906,205.42 552.856,183.145 562.756,163.346 C572.655,144.041 587.006,129.191 604.826,118.302 C622.646,107.907 642.946,102.462 665.716,102.462 C698.876,102.462 725.116,115.332 744.916,141.071 L750.856,105.927 L812.226,105.927 Z M726.596,283.133 C737.486,270.263 743.426,252.939 743.426,231.654 C743.426,210.37 737.486,193.045 726.596,179.185 C715.216,165.821 700.366,158.891 681.556,158.891 C662.746,158.891 647.396,165.821 636.016,179.185 C624.626,192.55 619.186,209.875 619.186,231.159 C619.186,252.939 624.626,270.263 636.016,283.133 C647.396,296.498 662.746,302.932 681.556,302.932 C700.366,302.932 715.216,296.498 726.596,283.133 Z M914.346,347.481 C894.056,336.592 878.216,321.247 867.326,301.447 C856.436,281.648 850.986,258.878 850.986,233.139 C850.986,207.4 856.436,184.63 867.326,164.831 C878.216,145.031 894.056,130.181 914.346,119.292 C934.646,108.402 958.406,102.957 985.136,102.957 C1011.856,102.957 1035.126,108.402 1055.416,119.292 C1075.716,130.181 1091.556,145.031 1102.446,164.831 C1113.336,184.63 1119.276,207.4 1119.276,233.139 C1119.276,259.373 1113.336,282.143 1102.446,301.942 C1091.556,321.742 1075.716,336.592 1055.416,347.481 C1035.126,358.371 1011.856,363.321 985.136,363.321 C958.406,363.321 934.646,358.371 914.346,347.481 Z M1031.166,286.103 C1042.546,272.738 1048.486,254.918 1048.486,233.139 C1048.486,211.36 1042.546,194.035 1031.166,180.175 C1019.776,166.811 1004.436,159.881 985.136,159.881 C965.826,159.881 950.486,166.811 939.096,180.175 C927.716,194.035 922.266,211.36 922.266,233.139 C922.266,254.918 927.716,272.738 939.096,286.103 C950.486,299.962 965.826,306.397 985.136,306.397 C1004.436,306.397 1019.776,299.962 1031.166,286.103 Z M1157.686,13.859 L1227.486,13.859 L1227.486,214.329 L1327.466,105.927 L1405.676,105.927 L1315.096,205.42 L1410.626,360.351 L1329.946,360.351 L1265.596,257.393 L1227.486,298.477 L1227.486,360.351 L1157.686,360.351 L1157.686,13.859 Z M1499.486,11.384 C1506.916,18.809 1510.876,28.214 1510.876,39.104 C1510.876,50.488 1506.916,59.893 1499.486,67.318 C1491.566,75.238 1482.166,78.703 1470.776,78.703 C1458.896,78.703 1449.496,75.238 1441.576,67.318 C1433.656,59.893 1430.196,50.488 1430.196,39.104 C1430.196,28.214 1433.656,18.809 1441.576,11.384 C1449.496,3.959 1458.896,0 1470.776,0 C1482.166,0 1491.566,3.959 1499.486,11.384 Z M1435.636,105.927 L1505.426,105.927 L1505.426,360.351 L1435.636,360.351 L1435.636,105.927 Z M1570.396,164.831 L1528.326,164.831 L1528.326,105.927 L1570.396,105.927 L1570.396,34.649 L1640.196,34.649 L1640.196,105.927 L1698.106,105.927 L1698.106,164.831 L1640.196,164.831 L1640.196,276.203 C1640.196,285.113 1641.676,291.548 1645.636,295.508 C1649.596,299.467 1656.036,301.447 1664.946,301.447 L1701.076,301.447 L1701.076,360.351 L1643.166,360.351 C1594.656,360.351 1570.396,336.097 1570.396,287.588 L1570.396,164.831 Z" id="Shape" fill="#2D2DF1"></path>
        </g>
    </g>
</svg>