<svg width="1280" height="149" viewBox="0 0 1280 149" fill="none" xmlns="http://www.w3.org/2000/svg">
<path d="M0.104334 4.76404H42.5329V24.3098H21.0803V128.236H42.5329V147.782H0.104334V4.76404ZM593.287 147.782H550.859V128.236H572.312V24.3098H550.859V4.76404H593.287V147.782Z" fill="#BFBFF9"/>
<path d="M132.491 97.0899V116H121.05C110.721 116 105.636 111.551 105.954 102.652C102.934 107.419 99.2794 110.915 94.9889 113.299C90.5394 115.841 85.2954 116.953 79.2569 116.953C70.0402 116.953 62.7304 114.888 57.1686 110.756C51.6068 106.624 48.9054 100.586 48.9054 92.9583C48.9054 84.3772 52.0836 77.703 58.4399 72.9358C64.7962 68.1685 74.1718 65.7849 86.4078 65.7849H102.616V61.8122C102.616 58.1573 101.186 55.2969 98.4848 53.0722C95.6245 50.8475 91.9696 49.7351 87.3612 49.7351C83.2296 49.7351 79.7336 50.6886 77.1911 52.4366C74.4897 54.3435 72.9006 56.7271 72.4238 59.7464H50.8123C51.4479 51.4831 55.2617 44.9679 61.9359 40.3595C68.61 35.7512 77.35 33.3676 88.4736 33.3676C99.915 33.3676 108.814 35.9101 115.17 40.9952C121.527 46.0803 124.705 53.549 124.705 63.0835V91.8459C124.705 93.9117 125.023 95.3419 125.976 95.9775C126.771 96.7721 128.042 97.0899 129.949 97.0899H132.491ZM102.616 80.7223H86.2489C81.4816 80.7223 77.8267 81.6758 75.2842 83.5827C72.7417 85.4896 71.4704 88.0321 71.4704 91.3692C71.4704 94.2295 72.4238 96.6132 74.6486 98.2022C76.8733 99.9502 79.7336 100.745 83.5474 100.745C89.2682 100.745 93.8765 99.1557 97.3725 95.8186C100.71 92.4815 102.458 88.0321 102.616 82.3114V80.7223ZM141.159 4.76404H163.565V116H141.159V4.76404ZM260.858 34.321V113.616C260.858 124.422 257.203 132.844 250.211 139.201C243.061 145.557 232.096 148.735 217.158 148.735C205.558 148.735 196.183 146.193 189.191 141.108C182.04 136.022 178.226 128.872 177.749 119.496H200.314C201.268 123.469 203.333 126.488 206.512 128.554C209.69 130.778 213.821 131.732 218.906 131.732C225.263 131.732 230.189 130.143 233.685 126.965C237.181 123.787 238.929 119.178 238.929 112.822V104.241C232.89 111.868 224.468 115.523 213.662 115.523C206.353 115.523 199.996 113.934 194.276 110.438C188.555 107.101 183.947 102.334 180.768 96.1364C177.59 89.939 176.001 82.6292 176.001 74.366C176.001 66.2616 177.59 59.1108 180.768 52.7544C183.947 46.557 188.555 41.7897 194.276 38.2937C199.996 34.9567 206.512 33.2087 213.821 33.2087C224.468 33.2087 232.89 37.3403 239.247 45.6035L241.154 34.321H260.858ZM233.367 91.2103C236.863 87.0786 238.77 81.5169 238.77 74.6838C238.77 67.8507 236.863 62.2889 233.367 57.8395C229.712 53.549 224.945 51.3242 218.906 51.3242C212.868 51.3242 207.942 53.549 204.287 57.8395C200.632 62.13 198.884 67.6918 198.884 74.5249C198.884 81.5169 200.632 87.0786 204.287 91.2103C207.942 95.5008 212.868 97.5666 218.906 97.5666C224.945 97.5666 229.712 95.5008 233.367 91.2103ZM293.642 111.868C287.127 108.372 282.042 103.446 278.546 97.0899C275.05 90.7335 273.302 83.4238 273.302 75.1605C273.302 66.8973 275.05 59.5875 278.546 53.2311C282.042 46.8748 287.127 42.1075 293.642 38.6116C300.157 35.1156 307.785 33.3676 316.366 33.3676C324.947 33.3676 332.416 35.1156 338.931 38.6116C345.446 42.1075 350.531 46.8748 354.027 53.2311C357.523 59.5875 359.43 66.8973 359.43 75.1605C359.43 83.5827 357.523 90.8925 354.027 97.2488C350.531 103.605 345.446 108.372 338.931 111.868C332.416 115.364 324.947 116.953 316.366 116.953C307.785 116.953 300.157 115.364 293.642 111.868ZM331.144 92.1637C334.799 87.8732 336.706 82.1525 336.706 75.1605C336.706 68.1685 334.799 62.6067 331.144 58.1573C327.489 53.8668 322.563 51.642 316.366 51.642C310.168 51.642 305.242 53.8668 301.587 58.1573C297.932 62.6067 296.184 68.1685 296.184 75.1605C296.184 82.1525 297.932 87.8732 301.587 92.1637C305.242 96.6132 310.168 98.679 316.366 98.679C322.563 98.679 327.489 96.6132 331.144 92.1637ZM371.763 4.76404H394.169V69.122L426.268 34.321H451.376L422.296 66.2616L452.965 116H427.063L406.405 82.947L394.169 96.1364V116H371.763V4.76404ZM481.493 3.96949C483.876 6.35312 485.148 9.37239 485.148 12.8684C485.148 16.5233 483.876 19.5425 481.493 21.9262C478.95 24.4687 475.931 25.5811 472.276 25.5811C468.462 25.5811 465.443 24.4687 462.901 21.9262C460.358 19.5425 459.246 16.5233 459.246 12.8684C459.246 9.37239 460.358 6.35312 462.901 3.96949C465.443 1.58587 468.462 0.314599 472.276 0.314599C475.931 0.314599 478.95 1.58587 481.493 3.96949ZM460.994 34.321H483.4V116H460.994V34.321ZM504.258 53.2311H490.75V34.321H504.258V11.4382H526.664V34.321H545.256V53.2311H526.664V88.9856C526.664 91.8459 527.141 93.9117 528.412 95.183C529.683 96.4543 531.749 97.0899 534.609 97.0899H546.21V116H527.617C512.044 116 504.258 108.213 504.258 92.6404V53.2311ZM644.321 4.76404H732.356V25.2632H700.256V116H676.42V25.2632H644.321V4.76404ZM815.064 34.321V116H795.201L793.135 106.148C790.274 109.644 786.937 112.186 783.124 114.093C779.31 116 774.542 116.953 769.14 116.953C759.605 116.953 751.819 114.093 745.78 108.213C739.742 102.334 736.722 92.4815 736.722 78.6565V34.321H759.128V75.9551C759.128 83.4238 760.4 88.9856 762.942 92.7994C765.485 96.6132 769.616 98.3612 775.019 98.3612C780.581 98.3612 784.872 96.2953 788.05 92.1637C791.069 88.0321 792.658 82.1525 792.658 74.5249V34.321H815.064ZM836.507 53.2311H823V34.321H836.507V11.4382H858.913V34.321H877.505V53.2311H858.913V88.9856C858.913 91.8459 859.39 93.9117 860.661 95.183C861.932 96.4543 863.998 97.0899 866.858 97.0899H878.459V116H859.866C844.293 116 836.507 108.213 836.507 92.6404V53.2311ZM903.826 111.868C897.31 108.372 892.225 103.446 888.729 97.0899C885.233 90.7335 883.485 83.4238 883.485 75.1605C883.485 66.8973 885.233 59.5875 888.729 53.2311C892.225 46.8748 897.31 42.1075 903.826 38.6116C910.341 35.1156 917.969 33.3676 926.55 33.3676C935.131 33.3676 942.599 35.1156 949.115 38.6116C955.63 42.1075 960.715 46.8748 964.211 53.2311C967.707 59.5875 969.614 66.8973 969.614 75.1605C969.614 83.5827 967.707 90.8925 964.211 97.2488C960.715 103.605 955.63 108.372 949.115 111.868C942.599 115.364 935.131 116.953 926.55 116.953C917.969 116.953 910.341 115.364 903.826 111.868ZM941.328 92.1637C944.983 87.8732 946.89 82.1525 946.89 75.1605C946.89 68.1685 944.983 62.6067 941.328 58.1573C937.673 53.8668 932.747 51.642 926.55 51.642C920.352 51.642 915.426 53.8668 911.771 58.1573C908.116 62.6067 906.368 68.1685 906.368 75.1605C906.368 82.1525 908.116 87.8732 911.771 92.1637C915.426 96.6132 920.352 98.679 926.55 98.679C932.747 98.679 937.673 96.6132 941.328 92.1637ZM1031.68 34.321V54.6613H1022.79C1016.43 54.6613 1011.66 56.5682 1008.8 60.382C1005.78 64.1958 1004.35 69.4398 1004.35 75.9551V116H981.947V34.321H1002.29L1004.35 46.557C1006.74 42.5843 1009.76 39.565 1013.41 37.4992C1016.91 35.4334 1021.83 34.321 1027.87 34.321H1031.68ZM1062.19 3.96949C1064.58 6.35312 1065.85 9.37239 1065.85 12.8684C1065.85 16.5233 1064.58 19.5425 1062.19 21.9262C1059.65 24.4687 1056.63 25.5811 1052.98 25.5811C1049.16 25.5811 1046.14 24.4687 1043.6 21.9262C1041.06 19.5425 1039.94 16.5233 1039.94 12.8684C1039.94 9.37239 1041.06 6.35312 1043.6 3.96949C1046.14 1.58587 1049.16 0.314599 1052.98 0.314599C1056.63 0.314599 1059.65 1.58587 1062.19 3.96949ZM1041.69 34.321H1064.1V116H1041.69V34.321ZM1160.12 97.0899V116H1148.68C1138.35 116 1133.26 111.551 1133.58 102.652C1130.56 107.419 1126.91 110.915 1122.62 113.299C1118.17 115.841 1112.92 116.953 1106.89 116.953C1097.67 116.953 1090.36 114.888 1084.8 110.756C1079.24 106.624 1076.53 100.586 1076.53 92.9583C1076.53 84.3772 1079.71 77.703 1086.07 72.9358C1092.43 68.1685 1101.8 65.7849 1114.04 65.7849H1130.25V61.8122C1130.25 58.1573 1128.82 55.2969 1126.11 53.0722C1123.25 50.8475 1119.6 49.7351 1114.99 49.7351C1110.86 49.7351 1107.36 50.6886 1104.82 52.4366C1102.12 54.3435 1100.53 56.7271 1100.05 59.7464H1078.44C1079.08 51.4831 1082.89 44.9679 1089.56 40.3595C1096.24 35.7512 1104.98 33.3676 1116.1 33.3676C1127.54 33.3676 1136.44 35.9101 1142.8 40.9952C1149.16 46.0803 1152.33 53.549 1152.33 63.0835V91.8459C1152.33 93.9117 1152.65 95.3419 1153.6 95.9775C1154.4 96.7721 1155.67 97.0899 1157.58 97.0899H1160.12ZM1130.25 80.7223H1113.88C1109.11 80.7223 1105.46 81.6758 1102.91 83.5827C1100.37 85.4896 1099.1 88.0321 1099.1 91.3692C1099.1 94.2295 1100.05 96.6132 1102.28 98.2022C1104.5 99.9502 1107.36 100.745 1111.18 100.745C1116.9 100.745 1121.51 99.1557 1125 95.8186C1128.34 92.4815 1130.09 88.0321 1130.25 82.3114V80.7223ZM1168.79 4.76404H1191.19V116H1168.79V4.76404ZM1225.08 88.8266C1225.4 92.4815 1227.15 95.3419 1230.33 97.5666C1233.5 99.7913 1237.48 100.904 1242.56 100.904C1247.33 100.904 1250.98 100.268 1253.85 98.679C1256.55 97.0899 1257.98 94.8652 1257.98 92.0048C1257.98 89.939 1257.34 88.3499 1256.07 87.2376C1254.8 86.2841 1252.89 85.4896 1250.67 85.0128C1248.28 84.5361 1244.47 83.9005 1239.23 83.2648C1231.92 82.3114 1226.04 81.199 1221.27 79.6099C1216.5 78.1798 1212.69 75.7961 1209.83 72.618C1206.97 69.4398 1205.54 65.3082 1205.54 59.9053C1205.54 54.6613 1206.97 50.053 1209.83 45.9213C1212.69 41.7897 1216.82 38.6116 1222.22 36.3868C1227.47 34.1621 1233.5 33.0498 1240.5 33.0498C1251.62 33.2087 1260.52 35.5923 1267.35 40.2006C1274.19 44.9679 1277.84 51.3242 1278.48 59.5875H1257.18C1256.86 56.5682 1255.12 54.0257 1252.26 52.1188C1249.4 50.2119 1245.58 49.0995 1241.13 49.0995C1236.84 49.0995 1233.35 49.8941 1230.8 51.4831C1228.26 53.0722 1226.99 55.2969 1226.99 57.8395C1226.99 59.7464 1227.63 61.1766 1229.06 62.13C1230.33 63.0835 1232.23 63.878 1234.46 64.1958C1236.68 64.6725 1240.34 65.1493 1245.58 65.626C1256.55 66.8973 1264.97 69.2809 1270.85 72.7769C1276.73 76.2729 1279.75 82.1525 1279.75 90.4157C1279.75 95.8186 1278.16 100.427 1274.98 104.4C1271.8 108.531 1267.51 111.551 1261.95 113.775C1256.39 116 1250.03 116.953 1242.72 116.953C1231.28 116.953 1222.06 114.57 1215.07 109.485C1207.92 104.4 1204.11 97.5666 1203.79 88.8266H1225.08Z" fill="#2D2DF1"/>
</svg>
