<svg width="1281" height="149" viewBox="0 0 1281 149" fill="none" xmlns="http://www.w3.org/2000/svg">
<path d="M0.104334 136.658V-0.00321409H42.5329V19.5425H21.2392V117.112H42.5329V136.658H0.104334ZM593.912 -0.00321409V136.658H551.483V117.112H572.777V19.5425H551.483V-0.00321409H593.912Z" fill="#8BE4E2"/>
<path d="M130.104 97.0899H132.646V116H121.205C109.605 116 105.95 110.438 106.109 102.652C100.388 111.709 92.1248 116.953 79.4121 116.953C61.7732 116.953 49.0606 108.531 49.0606 92.9583C49.0606 75.6372 62.0911 65.7849 86.563 65.7849H102.772V61.8122C102.772 54.5024 97.5277 49.7351 88.1521 49.7351C79.4121 49.7351 73.5325 53.7079 72.579 59.7464H50.9675C52.5566 43.8555 67.1761 33.3676 88.7877 33.3676C111.671 33.3676 124.86 43.5377 124.86 63.0835V92.0048C124.86 96.2953 126.608 97.0899 130.104 97.0899ZM102.772 82.3114V80.7223H86.4041C77.0285 80.7223 71.6256 84.5361 71.6256 91.3692C71.6256 97.0899 76.2339 100.745 83.7026 100.745C95.4619 100.745 102.613 93.435 102.772 82.3114ZM141.314 116V4.76404H163.721V116H141.314ZM239.402 45.6035L241.309 34.321H261.013V113.616C261.013 133.798 248.619 148.735 217.314 148.735C194.59 148.735 179.017 138.406 177.904 119.496H200.469C202.535 127.283 208.733 131.732 219.062 131.732C231.615 131.732 239.084 125.535 239.084 112.822V104.241C233.681 111.074 225.577 115.523 214.135 115.523C192.206 115.682 176.156 99.6324 176.156 74.366C176.156 49.4173 192.206 33.2087 213.977 33.2087C225.736 33.2087 233.999 38.4526 239.402 45.6035ZM219.062 97.5666C231.298 97.5666 238.925 88.191 238.925 74.6838C238.925 61.0177 231.298 51.3242 219.062 51.3242C206.826 51.3242 199.039 60.8587 199.039 74.5249C199.039 88.191 206.826 97.5666 219.062 97.5666ZM316.521 116.953C290.46 116.953 273.457 100.268 273.457 75.1605C273.457 50.053 290.46 33.3676 316.521 33.3676C342.582 33.3676 359.585 50.053 359.585 75.1605C359.585 100.427 342.582 116.953 316.521 116.953ZM316.521 98.679C329.075 98.679 336.861 88.9856 336.861 75.1605C336.861 61.3355 329.075 51.642 316.521 51.642C303.967 51.642 296.34 61.3355 296.34 75.1605C296.34 88.9856 303.967 98.679 316.521 98.679ZM371.918 116V4.76404H394.324V68.9631L426.265 34.321H451.531L422.133 66.4205L453.12 116H427.218L406.56 82.947L394.324 96.1364V116H371.918ZM471.5 25.5811C464.19 25.5811 458.47 20.1782 458.47 13.0273C458.47 5.71749 464.19 0.314599 471.5 0.314599C478.81 0.314599 484.531 5.71749 484.531 13.0273C484.531 20.1782 478.81 25.5811 471.5 25.5811ZM460.218 116V34.321H482.783V116H460.218ZM504.117 92.6404V53.2311H490.61V34.321H504.117V11.4382H526.524V34.321H545.275V53.2311H526.524V88.9856C526.524 94.7063 528.748 97.0899 534.628 97.0899H545.751V116H527.477C511.904 116 504.117 108.213 504.117 92.6404Z" fill="white"/>
<path d="M644.624 25.2632V4.76404H732.818V25.2632H700.559V116H676.723V25.2632H644.624ZM792.813 75.1605V34.321H815.219V116H795.356L793.29 106.148C788.046 112.504 780.895 116.953 769.295 116.953C752.45 116.953 736.877 108.531 736.877 79.6099V34.321H759.283V76.5907C759.283 91.2103 764.051 98.3612 775.174 98.3612C786.298 98.3612 792.813 90.2568 792.813 75.1605ZM837.298 92.6404V53.2311H823.79V34.321H837.298V11.4382H859.704V34.321H878.455V53.2311H859.704V88.9856C859.704 94.7063 861.928 97.0899 867.808 97.0899H878.932V116H860.657C845.084 116 837.298 108.213 837.298 92.6404ZM927.946 116.953C901.885 116.953 884.882 100.268 884.882 75.1605C884.882 50.053 901.885 33.3676 927.946 33.3676C954.007 33.3676 971.011 50.053 971.011 75.1605C971.011 100.427 954.007 116.953 927.946 116.953ZM927.946 98.679C940.5 98.679 948.287 88.9856 948.287 75.1605C948.287 61.3355 940.5 51.642 927.946 51.642C915.393 51.642 907.765 61.3355 907.765 75.1605C907.765 88.9856 915.393 98.679 927.946 98.679ZM1029.27 34.321H1033.08V54.6613H1024.18C1010.83 54.6613 1005.75 63.5602 1005.75 75.9551V116H983.343V34.321H1003.68L1005.75 46.557C1010.2 39.2472 1016.56 34.321 1029.27 34.321ZM1054.37 25.5811C1047.06 25.5811 1041.34 20.1782 1041.34 13.0273C1041.34 5.71749 1047.06 0.314599 1054.37 0.314599C1061.68 0.314599 1067.4 5.71749 1067.4 13.0273C1067.4 20.1782 1061.68 25.5811 1054.37 25.5811ZM1043.09 116V34.321H1065.65V116H1043.09ZM1158.97 97.0899H1161.52V116H1150.08C1138.48 116 1134.82 110.438 1134.98 102.652C1129.26 111.709 1121 116.953 1108.28 116.953C1090.64 116.953 1077.93 108.531 1077.93 92.9583C1077.93 75.6372 1090.96 65.7849 1115.43 65.7849H1131.64V61.8122C1131.64 54.5024 1126.4 49.7351 1117.02 49.7351C1108.28 49.7351 1102.4 53.7079 1101.45 59.7464H1079.84C1081.43 43.8555 1096.05 33.3676 1117.66 33.3676C1140.54 33.3676 1153.73 43.5377 1153.73 63.0835V92.0048C1153.73 96.2953 1155.48 97.0899 1158.97 97.0899ZM1131.64 82.3114V80.7223H1115.27C1105.9 80.7223 1100.5 84.5361 1100.5 91.3692C1100.5 97.0899 1105.1 100.745 1112.57 100.745C1124.33 100.745 1131.48 93.435 1131.64 82.3114ZM1170.18 116V4.76404H1192.59V116H1170.18ZM1204.39 88.8266H1225.68C1226.48 95.9775 1232.68 100.904 1243.64 100.904C1253.02 100.904 1258.74 97.8844 1258.74 92.1637C1258.74 85.4896 1253.18 85.0128 1239.99 83.2648C1220.92 81.0401 1206.14 76.7496 1206.14 59.9053C1206.14 43.6966 1220.28 33.0498 1241.26 33.2087C1263.19 33.2087 1278.28 42.9021 1279.4 59.5875H1257.94C1257.31 53.0722 1251.11 49.0995 1242.05 49.0995C1233.31 49.0995 1227.59 52.2777 1227.59 57.5217C1227.59 63.7191 1234.58 64.3547 1246.34 65.7849C1265.09 67.6918 1280.67 71.9823 1280.67 90.4157C1280.67 106.624 1265.41 116.953 1243.48 116.953C1220.76 116.953 1205.34 106.307 1204.39 88.8266Z" fill="#2ECFCC"/>
</svg>
