<svg width="978" height="115" viewBox="0 0 978 115" fill="none" xmlns="http://www.w3.org/2000/svg">
<path d="M0.192478 4.00521H32.6119V18.94H16.2201V98.3494H32.6119V113.284H0.192478V4.00521ZM453.44 113.284H421.021V98.3494H437.413V18.94H421.021V4.00521H453.44V113.284Z" fill="#A9A9F6"/>
<path d="M101.349 74.5509V89H92.6063C84.7139 89 80.8284 85.6002 81.0713 78.8006C78.7643 82.4433 75.9716 85.1145 72.6932 86.9358C69.2934 88.8786 65.2865 89.7285 60.6725 89.7285C53.6301 89.7285 48.0447 88.1501 43.795 84.9931C39.5453 81.8362 37.4811 77.2222 37.4811 71.3939C37.4811 64.8372 39.9095 59.7375 44.7664 56.0949C49.6232 52.4522 56.7871 50.6309 66.1365 50.6309H78.5214V47.5954C78.5214 44.8027 77.4286 42.6171 75.3645 40.9172C73.1789 39.2173 70.3862 38.3674 66.865 38.3674C63.7081 38.3674 61.0368 39.0959 59.0941 40.4315C57.0299 41.8886 55.8157 43.7099 55.4514 46.0169H38.9381C39.4238 39.703 42.3379 34.7248 47.4376 31.2035C52.5373 27.6823 59.2155 25.861 67.715 25.861C76.4573 25.861 83.2569 27.8038 88.1137 31.6892C92.9706 35.5747 95.399 41.2815 95.399 48.5668V70.544C95.399 72.1225 95.6418 73.2153 96.3703 73.7009C96.9775 74.308 97.9488 74.5509 99.4059 74.5509H101.349ZM78.5214 62.0445H66.0151C62.3724 62.0445 59.5797 62.773 57.637 64.2301C55.6943 65.6871 54.7229 67.6299 54.7229 70.1797C54.7229 72.3653 55.4514 74.1866 57.1513 75.4008C58.8512 76.7365 61.0368 77.3436 63.9509 77.3436C68.3221 77.3436 71.8433 76.1294 74.5145 73.5795C77.0644 71.0297 78.4 67.6299 78.5214 63.2587V62.0445ZM107.972 4.00521H125.092V89H107.972V4.00521ZM199.433 26.5895V87.1787C199.433 95.4353 196.64 101.871 191.298 106.727C185.834 111.584 177.456 114.013 166.042 114.013C157.179 114.013 150.015 112.07 144.672 108.185C139.208 104.299 136.294 98.8351 135.93 91.6713H153.172C153.9 94.7068 155.479 97.0138 157.907 98.5923C160.336 100.292 163.493 101.021 167.378 101.021C172.235 101.021 175.999 99.8065 178.67 97.3781C181.341 94.9496 182.677 91.4284 182.677 86.5716V80.0148C178.063 85.8431 171.628 88.6357 163.371 88.6357C157.786 88.6357 152.929 87.4215 148.558 84.7503C144.187 82.2004 140.665 78.5578 138.237 73.8224C135.808 69.0869 134.594 63.5016 134.594 57.1877C134.594 50.9952 135.808 45.5312 138.237 40.6744C140.665 35.939 144.187 32.2963 148.558 29.6251C152.929 27.0752 157.907 25.7396 163.493 25.7396C171.628 25.7396 178.063 28.8965 182.92 35.2104L184.377 26.5895H199.433ZM178.427 70.0583C181.099 66.9014 182.556 62.6516 182.556 57.4305C182.556 52.2094 181.099 47.9597 178.427 44.5599C175.635 41.2815 171.992 39.5816 167.378 39.5816C162.764 39.5816 159 41.2815 156.207 44.5599C153.415 47.8382 152.079 52.088 152.079 57.3091C152.079 62.6516 153.415 66.9014 156.207 70.0583C159 73.3367 162.764 74.9151 167.378 74.9151C171.992 74.9151 175.635 73.3367 178.427 70.0583ZM224.483 85.8431C219.505 83.1718 215.619 79.4077 212.948 74.5509C210.277 69.694 208.941 64.1087 208.941 57.7948C208.941 51.4809 210.277 45.8955 212.948 41.0387C215.619 36.1818 219.505 32.5392 224.483 29.8679C229.461 27.1966 235.289 25.861 241.846 25.861C248.403 25.861 254.11 27.1966 259.088 29.8679C264.066 32.5392 267.952 36.1818 270.623 41.0387C273.294 45.8955 274.751 51.4809 274.751 57.7948C274.751 64.2301 273.294 69.8155 270.623 74.6723C267.952 79.5292 264.066 83.1718 259.088 85.8431C254.11 88.5143 248.403 89.7285 241.846 89.7285C235.289 89.7285 229.461 88.5143 224.483 85.8431ZM253.138 70.7868C255.931 67.5085 257.388 63.1373 257.388 57.7948C257.388 52.4522 255.931 48.2025 253.138 44.8027C250.346 41.5243 246.582 39.8244 241.846 39.8244C237.111 39.8244 233.347 41.5243 230.554 44.8027C227.761 48.2025 226.426 52.4522 226.426 57.7948C226.426 63.1373 227.761 67.5085 230.554 70.7868C233.347 74.1866 237.111 75.7651 241.846 75.7651C246.582 75.7651 250.346 74.1866 253.138 70.7868ZM284.175 4.00521H301.295V53.1808L325.822 26.5895H345.007L322.787 50.9952L346.221 89H326.429L310.644 63.7444L301.295 73.8224V89H284.175V4.00521ZM368.019 3.3981C369.84 5.21942 370.812 7.52642 370.812 10.1977C370.812 12.9904 369.84 15.2974 368.019 17.1187C366.076 19.0614 363.769 19.9114 360.976 19.9114C358.062 19.9114 355.755 19.0614 353.813 17.1187C351.87 15.2974 351.02 12.9904 351.02 10.1977C351.02 7.52642 351.87 5.21942 353.813 3.3981C355.755 1.57678 358.062 0.605414 360.976 0.605414C363.769 0.605414 366.076 1.57678 368.019 3.3981ZM352.355 26.5895H369.476V89H352.355V26.5895ZM385.413 41.0387H375.093V26.5895H385.413V9.10489H402.534V26.5895H416.74V41.0387H402.534V68.3584C402.534 70.544 402.898 72.1225 403.869 73.0938C404.841 74.0652 406.419 74.5509 408.605 74.5509H417.468V89H403.262C391.363 89 385.413 83.0504 385.413 71.1511V41.0387ZM492.435 4.00521H559.702V19.6685H535.175V89H516.962V19.6685H492.435V4.00521ZM622.899 26.5895V89H607.721L606.143 81.4719C603.957 84.1432 601.407 86.0859 598.493 87.5429C595.579 89 591.936 89.7285 587.808 89.7285C580.523 89.7285 574.573 87.5429 569.959 83.0504C565.345 78.5578 563.038 71.0297 563.038 60.466V26.5895H580.159V58.4019C580.159 64.1087 581.13 68.3584 583.073 71.2725C585.015 74.1866 588.172 75.5223 592.301 75.5223C596.55 75.5223 599.829 73.9438 602.257 70.7868C604.564 67.6299 605.778 63.1373 605.778 57.3091V26.5895H622.899ZM639.283 41.0387H628.962V26.5895H639.283V9.10489H656.403V26.5895H670.61V41.0387H656.403V68.3584C656.403 70.544 656.768 72.1225 657.739 73.0938C658.71 74.0652 660.289 74.5509 662.475 74.5509H671.338V89H657.132C645.233 89 639.283 83.0504 639.283 71.1511V41.0387ZM690.721 85.8431C685.743 83.1718 681.857 79.4077 679.186 74.5509C676.515 69.694 675.179 64.1087 675.179 57.7948C675.179 51.4809 676.515 45.8955 679.186 41.0387C681.857 36.1818 685.743 32.5392 690.721 29.8679C695.699 27.1966 701.528 25.861 708.084 25.861C714.641 25.861 720.348 27.1966 725.326 29.8679C730.304 32.5392 734.19 36.1818 736.861 41.0387C739.532 45.8955 740.989 51.4809 740.989 57.7948C740.989 64.2301 739.532 69.8155 736.861 74.6723C734.19 79.5292 730.304 83.1718 725.326 85.8431C720.348 88.5143 714.641 89.7285 708.084 89.7285C701.528 89.7285 695.699 88.5143 690.721 85.8431ZM719.376 70.7868C722.169 67.5085 723.626 63.1373 723.626 57.7948C723.626 52.4522 722.169 48.2025 719.376 44.8027C716.584 41.5243 712.82 39.8244 708.084 39.8244C703.349 39.8244 699.585 41.5243 696.792 44.8027C693.999 48.2025 692.664 52.4522 692.664 57.7948C692.664 63.1373 693.999 67.5085 696.792 70.7868C699.585 74.1866 703.349 75.7651 708.084 75.7651C712.82 75.7651 716.584 74.1866 719.376 70.7868ZM788.418 26.5895V42.1314H781.618C776.761 42.1314 773.119 43.5885 770.933 46.5026C768.626 49.4167 767.533 53.4236 767.533 58.4019V89H750.413V26.5895H765.955L767.533 35.939C769.355 32.9034 771.662 30.5964 774.454 29.018C777.125 27.4395 780.89 26.5895 785.504 26.5895H788.418ZM811.728 3.3981C813.549 5.21942 814.52 7.52642 814.52 10.1977C814.52 12.9904 813.549 15.2974 811.728 17.1187C809.785 19.0614 807.478 19.9114 804.685 19.9114C801.771 19.9114 799.464 19.0614 797.521 17.1187C795.579 15.2974 794.729 12.9904 794.729 10.1977C794.729 7.52642 795.579 5.21942 797.521 3.3981C799.464 1.57678 801.771 0.605414 804.685 0.605414C807.478 0.605414 809.785 1.57678 811.728 3.3981ZM796.064 26.5895H813.185V89H796.064V26.5895ZM886.554 74.5509V89H877.812C869.92 89 866.034 85.6002 866.277 78.8006C863.97 82.4433 861.177 85.1145 857.899 86.9358C854.499 88.8786 850.492 89.7285 845.878 89.7285C838.836 89.7285 833.251 88.1501 829.001 84.9931C824.751 81.8362 822.687 77.2222 822.687 71.3939C822.687 64.8372 825.115 59.7375 829.972 56.0949C834.829 52.4522 841.993 50.6309 851.342 50.6309H863.727V47.5954C863.727 44.8027 862.634 42.6171 860.57 40.9172C858.385 39.2173 855.592 38.3674 852.071 38.3674C848.914 38.3674 846.243 39.0959 844.3 40.4315C842.236 41.8886 841.021 43.7099 840.657 46.0169H824.144C824.63 39.703 827.544 34.7248 832.643 31.2035C837.743 27.6823 844.421 25.861 852.921 25.861C861.663 25.861 868.463 27.8038 873.319 31.6892C878.176 35.5747 880.605 41.2815 880.605 48.5668V70.544C880.605 72.1225 880.848 73.2153 881.576 73.7009C882.183 74.308 883.155 74.5509 884.612 74.5509H886.554ZM863.727 62.0445H851.221C847.578 62.0445 844.786 62.773 842.843 64.2301C840.9 65.6871 839.929 67.6299 839.929 70.1797C839.929 72.3653 840.657 74.1866 842.357 75.4008C844.057 76.7365 846.243 77.3436 849.157 77.3436C853.528 77.3436 857.049 76.1294 859.72 73.5795C862.27 71.0297 863.606 67.6299 863.727 63.2587V62.0445ZM893.178 4.00521H910.298V89H893.178V4.00521ZM936.192 68.237C936.435 71.0297 937.77 73.2153 940.199 74.9151C942.627 76.615 945.663 77.465 949.548 77.465C953.191 77.465 955.984 76.9793 958.169 75.7651C960.233 74.5509 961.326 72.851 961.326 70.6654C961.326 69.0869 960.84 67.8727 959.869 67.0228C958.898 66.2942 957.441 65.6871 955.741 65.3229C953.919 64.9586 951.005 64.4729 946.998 63.9872C941.413 63.2587 936.92 62.4088 933.278 61.1946C929.635 60.1018 926.721 58.2805 924.535 55.852C922.35 53.4236 921.257 50.2667 921.257 46.1383C921.257 42.1314 922.35 38.6102 924.535 35.4533C926.721 32.2963 929.878 29.8679 934.006 28.168C938.013 26.4681 942.627 25.6182 947.97 25.6182C956.469 25.7396 963.269 27.5609 968.49 31.0821C973.711 34.7248 976.504 39.5816 976.989 45.8955H960.719C960.476 43.5885 959.14 41.6458 956.955 40.1887C954.769 38.7316 951.855 37.8817 948.455 37.8817C945.177 37.8817 942.506 38.4888 940.563 39.703C938.62 40.9172 937.649 42.6171 937.649 44.5599C937.649 46.0169 938.135 47.1097 939.227 47.8382C940.199 48.5668 941.656 49.1739 943.356 49.4167C945.056 49.781 947.848 50.1452 951.855 50.5095C960.233 51.4809 966.669 53.3022 971.161 55.9735C975.654 58.6447 977.961 63.1373 977.961 69.4512C977.961 73.5795 976.747 77.1007 974.318 80.1363C971.89 83.2932 968.611 85.6002 964.362 87.3001C960.112 89 955.255 89.7285 949.67 89.7285C940.927 89.7285 933.885 87.9072 928.542 84.0217C923.078 80.1363 920.164 74.9151 919.921 68.237H936.192Z" fill="#2D2DF1"/>
</svg>
