<svg width="979" height="115" viewBox="0 0 979 115" fill="none" xmlns="http://www.w3.org/2000/svg">
<path d="M0.192478 104.785V0.362575H32.6119V15.2974H16.3415V89.8499H32.6119V104.785H0.192478ZM453.918 0.362575V104.785H421.498V89.8499H437.769V15.2974H421.498V0.362575H453.918ZM492.666 19.6685V4.00521H560.055V19.6685H535.406V89H517.193V19.6685H492.666ZM605.897 57.7948V26.5895H623.017V89H607.84L606.261 81.4719C602.254 86.3287 596.79 89.7285 587.927 89.7285C575.056 89.7285 563.157 83.2932 563.157 61.1946V26.5895H580.277V58.8876C580.277 70.0583 583.92 75.5223 592.419 75.5223C600.919 75.5223 605.897 69.3298 605.897 57.7948ZM639.887 71.1511V41.0387H629.567V26.5895H639.887V9.10489H657.008V26.5895H671.335V41.0387H657.008V68.3584C657.008 72.7296 658.708 74.5509 663.2 74.5509H671.7V89H657.736C645.837 89 639.887 83.0504 639.887 71.1511ZM709.151 89.7285C689.238 89.7285 676.246 76.9793 676.246 57.7948C676.246 38.6102 689.238 25.861 709.151 25.861C729.065 25.861 742.057 38.6102 742.057 57.7948C742.057 77.1007 729.065 89.7285 709.151 89.7285ZM709.151 75.7651C718.744 75.7651 724.693 68.3584 724.693 57.7948C724.693 47.2311 718.744 39.8244 709.151 39.8244C699.559 39.8244 693.731 47.2311 693.731 57.7948C693.731 68.3584 699.559 75.7651 709.151 75.7651ZM786.571 26.5895H789.485V42.1314H782.685C772.486 42.1314 768.6 48.931 768.6 58.4019V89H751.48V26.5895H767.022L768.6 35.939C772 30.3536 776.857 26.5895 786.571 26.5895ZM805.752 19.9114C800.167 19.9114 795.796 15.7831 795.796 10.3191C795.796 4.73374 800.167 0.605414 805.752 0.605414C811.338 0.605414 815.709 4.73374 815.709 10.3191C815.709 15.7831 811.338 19.9114 805.752 19.9114ZM797.132 89V26.5895H814.373V89H797.132ZM885.679 74.5509H887.622V89H878.879C870.016 89 867.223 84.7503 867.344 78.8006C862.973 85.7216 856.659 89.7285 846.945 89.7285C833.468 89.7285 823.754 83.2932 823.754 71.3939C823.754 58.159 833.711 50.6309 852.409 50.6309H864.794V47.5954C864.794 42.01 860.788 38.3674 853.624 38.3674C846.945 38.3674 842.453 41.4029 841.724 46.0169H825.211C826.425 33.8748 837.596 25.861 854.109 25.861C871.594 25.861 881.672 33.632 881.672 48.5668V70.6654C881.672 73.9438 883.008 74.5509 885.679 74.5509ZM864.794 63.2587V62.0445H852.288C845.124 62.0445 840.996 64.9586 840.996 70.1797C840.996 74.5509 844.517 77.3436 850.224 77.3436C859.209 77.3436 864.673 71.7582 864.794 63.2587ZM894.245 89V4.00521H911.365V89H894.245ZM920.382 68.237H936.652C937.259 73.7009 941.994 77.465 950.373 77.465C957.536 77.465 961.908 75.158 961.908 70.7868C961.908 65.6871 957.658 65.3229 947.58 63.9872C933.009 62.2874 921.717 59.009 921.717 46.1383C921.717 33.7534 932.524 25.6182 948.551 25.7396C965.307 25.7396 976.842 33.1463 977.692 45.8955H961.3C960.815 40.9172 956.079 37.8817 949.158 37.8817C942.48 37.8817 938.109 40.3101 938.109 44.317C938.109 49.0524 943.452 49.5381 952.437 50.6309C966.764 52.088 978.664 55.3663 978.664 69.4512C978.664 81.8362 967.007 89.7285 950.251 89.7285C932.888 89.7285 921.11 81.5933 920.382 68.237Z" fill="#A2EAE8"/>
<path d="M99.5244 74.5509H101.467V89H92.7249C83.8611 89 81.0684 84.7503 81.1899 78.8006C76.8187 85.7216 70.5048 89.7285 60.7911 89.7285C47.3134 89.7285 37.5997 83.2932 37.5997 71.3939C37.5997 58.159 47.5562 50.6309 66.2551 50.6309H78.64V47.5954C78.64 42.01 74.6331 38.3674 67.4693 38.3674C60.7911 38.3674 56.2985 41.4029 55.57 46.0169H39.0567C40.2709 33.8748 51.4417 25.861 67.955 25.861C85.4396 25.861 95.5176 33.632 95.5176 48.5668V70.6654C95.5176 73.9438 96.8532 74.5509 99.5244 74.5509ZM78.64 63.2587V62.0445H66.1336C58.9698 62.0445 54.8415 64.9586 54.8415 70.1797C54.8415 74.5509 58.3627 77.3436 64.0695 77.3436C73.0546 77.3436 78.5186 71.7582 78.64 63.2587ZM108.09 89V4.00521H125.211V89H108.09ZM183.038 35.2104L184.496 26.5895H199.552V87.1787C199.552 102.599 190.081 114.013 166.161 114.013C148.798 114.013 136.898 106.12 136.048 91.6713H153.29C154.869 97.6209 159.604 101.021 167.497 101.021C177.089 101.021 182.796 96.2853 182.796 86.5716V80.0148C178.667 85.2359 172.475 88.6357 163.733 88.6357C146.976 88.7572 134.713 76.4936 134.713 57.1877C134.713 38.1245 146.976 25.7396 163.611 25.7396C172.596 25.7396 178.91 29.7465 183.038 35.2104ZM167.497 74.9151C176.846 74.9151 182.674 67.7513 182.674 57.4305C182.674 46.9883 176.846 39.5816 167.497 39.5816C158.147 39.5816 152.198 46.8669 152.198 57.3091C152.198 67.7513 158.147 74.9151 167.497 74.9151ZM241.965 89.7285C222.052 89.7285 209.06 76.9793 209.06 57.7948C209.06 38.6102 222.052 25.861 241.965 25.861C261.878 25.861 274.87 38.6102 274.87 57.7948C274.87 77.1007 261.878 89.7285 241.965 89.7285ZM241.965 75.7651C251.557 75.7651 257.507 68.3584 257.507 57.7948C257.507 47.2311 251.557 39.8244 241.965 39.8244C232.372 39.8244 226.544 47.2311 226.544 57.7948C226.544 68.3584 232.372 75.7651 241.965 75.7651ZM284.293 89V4.00521H301.414V53.0593L325.819 26.5895H345.125L322.662 51.1166L346.339 89H326.548L310.763 63.7444L301.414 73.8224V89H284.293ZM360.384 19.9114C354.798 19.9114 350.427 15.7831 350.427 10.3191C350.427 4.73374 354.798 0.605414 360.384 0.605414C365.969 0.605414 370.34 4.73374 370.34 10.3191C370.34 15.7831 365.969 19.9114 360.384 19.9114ZM351.763 89V26.5895H369.004V89H351.763ZM385.306 71.1511V41.0387H374.985V26.5895H385.306V9.10489H402.427V26.5895H416.754V41.0387H402.427V68.3584C402.427 72.7296 404.126 74.5509 408.619 74.5509H417.118V89H403.155C391.256 89 385.306 83.0504 385.306 71.1511Z" fill="white"/>
</svg>
