<svg width="1283" height="151" viewBox="0 0 1283 151" fill="none" xmlns="http://www.w3.org/2000/svg">
<mask id="path-1-outside-1_411_2" maskUnits="userSpaceOnUse" x="0" y="-1" width="1283" height="152" fill="black">
<rect fill="white" y="-1" width="1283" height="152"/>
<path d="M1.10433 137.658V0.996786H43.5329V20.5425H22.2392V118.112H43.5329V137.658H1.10433ZM594.912 0.996786V137.658H552.483V118.112H573.777V20.5425H552.483V0.996786H594.912Z"/>
<path d="M131.104 98.0899H133.646V117H122.205C110.605 117 106.95 111.438 107.109 103.652C101.388 112.709 93.1248 117.953 80.4121 117.953C62.7732 117.953 50.0606 109.531 50.0606 93.9583C50.0606 76.6372 63.0911 66.7849 87.563 66.7849H103.772V62.8122C103.772 55.5024 98.5277 50.7351 89.1521 50.7351C80.4121 50.7351 74.5325 54.7079 73.579 60.7464H51.9675C53.5566 44.8555 68.1761 34.3676 89.7877 34.3676C112.671 34.3676 125.86 44.5377 125.86 64.0835V93.0048C125.86 97.2953 127.608 98.0899 131.104 98.0899ZM103.772 83.3114V81.7223H87.4041C78.0285 81.7223 72.6256 85.5361 72.6256 92.3692C72.6256 98.0899 77.2339 101.745 84.7026 101.745C96.4619 101.745 103.613 94.435 103.772 83.3114ZM142.314 117V5.76404H164.721V117H142.314ZM240.402 46.6035L242.309 35.321H262.013V114.616C262.013 134.798 249.619 149.735 218.314 149.735C195.59 149.735 180.017 139.406 178.904 120.496H201.469C203.535 128.283 209.733 132.732 220.062 132.732C232.615 132.732 240.084 126.535 240.084 113.822V105.241C234.681 112.074 226.577 116.523 215.135 116.523C193.206 116.682 177.156 100.632 177.156 75.366C177.156 50.4173 193.206 34.2087 214.977 34.2087C226.736 34.2087 234.999 39.4526 240.402 46.6035ZM220.062 98.5666C232.298 98.5666 239.925 89.191 239.925 75.6838C239.925 62.0177 232.298 52.3242 220.062 52.3242C207.826 52.3242 200.039 61.8587 200.039 75.5249C200.039 89.191 207.826 98.5666 220.062 98.5666ZM317.521 117.953C291.46 117.953 274.457 101.268 274.457 76.1605C274.457 51.053 291.46 34.3676 317.521 34.3676C343.582 34.3676 360.585 51.053 360.585 76.1605C360.585 101.427 343.582 117.953 317.521 117.953ZM317.521 99.679C330.075 99.679 337.861 89.9856 337.861 76.1605C337.861 62.3355 330.075 52.642 317.521 52.642C304.967 52.642 297.34 62.3355 297.34 76.1605C297.34 89.9856 304.967 99.679 317.521 99.679ZM372.918 117V5.76404H395.324V69.9631L427.265 35.321H452.531L423.133 67.4205L454.12 117H428.218L407.56 83.947L395.324 97.1364V117H372.918ZM472.5 26.5811C465.19 26.5811 459.47 21.1782 459.47 14.0273C459.47 6.71749 465.19 1.3146 472.5 1.3146C479.81 1.3146 485.531 6.71749 485.531 14.0273C485.531 21.1782 479.81 26.5811 472.5 26.5811ZM461.218 117V35.321H483.783V117H461.218ZM505.117 93.6404V54.2311H491.61V35.321H505.117V12.4382H527.524V35.321H546.275V54.2311H527.524V89.9856C527.524 95.7063 529.748 98.0899 535.628 98.0899H546.751V117H528.477C512.904 117 505.117 109.213 505.117 93.6404ZM645.624 26.2632V5.76404H733.818V26.2632H701.559V117H677.723V26.2632H645.624ZM793.813 76.1605V35.321H816.219V117H796.356L794.29 107.148C789.046 113.504 781.895 117.953 770.295 117.953C753.45 117.953 737.877 109.531 737.877 80.6099V35.321H760.283V77.5907C760.283 92.2103 765.051 99.3612 776.174 99.3612C787.298 99.3612 793.813 91.2568 793.813 76.1605ZM838.298 93.6404V54.2311H824.79V35.321H838.298V12.4382H860.704V35.321H879.455V54.2311H860.704V89.9856C860.704 95.7063 862.928 98.0899 868.808 98.0899H879.932V117H861.657C846.084 117 838.298 109.213 838.298 93.6404ZM928.946 117.953C902.885 117.953 885.882 101.268 885.882 76.1605C885.882 51.053 902.885 34.3676 928.946 34.3676C955.007 34.3676 972.011 51.053 972.011 76.1605C972.011 101.427 955.007 117.953 928.946 117.953ZM928.946 99.679C941.5 99.679 949.287 89.9856 949.287 76.1605C949.287 62.3355 941.5 52.642 928.946 52.642C916.393 52.642 908.765 62.3355 908.765 76.1605C908.765 89.9856 916.393 99.679 928.946 99.679ZM1030.27 35.321H1034.08V55.6613H1025.18C1011.83 55.6613 1006.75 64.5602 1006.75 76.9551V117H984.343V35.321H1004.68L1006.75 47.557C1011.2 40.2472 1017.56 35.321 1030.27 35.321ZM1055.37 26.5811C1048.06 26.5811 1042.34 21.1782 1042.34 14.0273C1042.34 6.71749 1048.06 1.3146 1055.37 1.3146C1062.68 1.3146 1068.4 6.71749 1068.4 14.0273C1068.4 21.1782 1062.68 26.5811 1055.37 26.5811ZM1044.09 117V35.321H1066.65V117H1044.09ZM1159.97 98.0899H1162.52V117H1151.08C1139.48 117 1135.82 111.438 1135.98 103.652C1130.26 112.709 1122 117.953 1109.28 117.953C1091.64 117.953 1078.93 109.531 1078.93 93.9583C1078.93 76.6372 1091.96 66.7849 1116.43 66.7849H1132.64V62.8122C1132.64 55.5024 1127.4 50.7351 1118.02 50.7351C1109.28 50.7351 1103.4 54.7079 1102.45 60.7464H1080.84C1082.43 44.8555 1097.05 34.3676 1118.66 34.3676C1141.54 34.3676 1154.73 44.5377 1154.73 64.0835V93.0048C1154.73 97.2953 1156.48 98.0899 1159.97 98.0899ZM1132.64 83.3114V81.7223H1116.27C1106.9 81.7223 1101.5 85.5361 1101.5 92.3692C1101.5 98.0899 1106.1 101.745 1113.57 101.745C1125.33 101.745 1132.48 94.435 1132.64 83.3114ZM1171.18 117V5.76404H1193.59V117H1171.18ZM1205.39 89.8266H1226.68C1227.48 96.9775 1233.68 101.904 1244.64 101.904C1254.02 101.904 1259.74 98.8844 1259.74 93.1637C1259.74 86.4896 1254.18 86.0128 1240.99 84.2648C1221.92 82.0401 1207.14 77.7496 1207.14 60.9053C1207.14 44.6966 1221.28 34.0498 1242.26 34.2087C1264.19 34.2087 1279.28 43.9021 1280.4 60.5875H1258.94C1258.31 54.0722 1252.11 50.0995 1243.05 50.0995C1234.31 50.0995 1228.59 53.2777 1228.59 58.5217C1228.59 64.7191 1235.58 65.3547 1247.34 66.7849C1266.09 68.6918 1281.67 72.9823 1281.67 91.4157C1281.67 107.624 1266.41 117.953 1244.48 117.953C1221.76 117.953 1206.34 107.307 1205.39 89.8266Z"/>
</mask>
<path d="M1.10433 137.658V0.996786H43.5329V20.5425H22.2392V118.112H43.5329V137.658H1.10433ZM594.912 0.996786V137.658H552.483V118.112H573.777V20.5425H552.483V0.996786H594.912Z" fill="#BFBFF9"/>
<path d="M131.104 98.0899H133.646V117H122.205C110.605 117 106.95 111.438 107.109 103.652C101.388 112.709 93.1248 117.953 80.4121 117.953C62.7732 117.953 50.0606 109.531 50.0606 93.9583C50.0606 76.6372 63.0911 66.7849 87.563 66.7849H103.772V62.8122C103.772 55.5024 98.5277 50.7351 89.1521 50.7351C80.4121 50.7351 74.5325 54.7079 73.579 60.7464H51.9675C53.5566 44.8555 68.1761 34.3676 89.7877 34.3676C112.671 34.3676 125.86 44.5377 125.86 64.0835V93.0048C125.86 97.2953 127.608 98.0899 131.104 98.0899ZM103.772 83.3114V81.7223H87.4041C78.0285 81.7223 72.6256 85.5361 72.6256 92.3692C72.6256 98.0899 77.2339 101.745 84.7026 101.745C96.4619 101.745 103.613 94.435 103.772 83.3114ZM142.314 117V5.76404H164.721V117H142.314ZM240.402 46.6035L242.309 35.321H262.013V114.616C262.013 134.798 249.619 149.735 218.314 149.735C195.59 149.735 180.017 139.406 178.904 120.496H201.469C203.535 128.283 209.733 132.732 220.062 132.732C232.615 132.732 240.084 126.535 240.084 113.822V105.241C234.681 112.074 226.577 116.523 215.135 116.523C193.206 116.682 177.156 100.632 177.156 75.366C177.156 50.4173 193.206 34.2087 214.977 34.2087C226.736 34.2087 234.999 39.4526 240.402 46.6035ZM220.062 98.5666C232.298 98.5666 239.925 89.191 239.925 75.6838C239.925 62.0177 232.298 52.3242 220.062 52.3242C207.826 52.3242 200.039 61.8587 200.039 75.5249C200.039 89.191 207.826 98.5666 220.062 98.5666ZM317.521 117.953C291.46 117.953 274.457 101.268 274.457 76.1605C274.457 51.053 291.46 34.3676 317.521 34.3676C343.582 34.3676 360.585 51.053 360.585 76.1605C360.585 101.427 343.582 117.953 317.521 117.953ZM317.521 99.679C330.075 99.679 337.861 89.9856 337.861 76.1605C337.861 62.3355 330.075 52.642 317.521 52.642C304.967 52.642 297.34 62.3355 297.34 76.1605C297.34 89.9856 304.967 99.679 317.521 99.679ZM372.918 117V5.76404H395.324V69.9631L427.265 35.321H452.531L423.133 67.4205L454.12 117H428.218L407.56 83.947L395.324 97.1364V117H372.918ZM472.5 26.5811C465.19 26.5811 459.47 21.1782 459.47 14.0273C459.47 6.71749 465.19 1.3146 472.5 1.3146C479.81 1.3146 485.531 6.71749 485.531 14.0273C485.531 21.1782 479.81 26.5811 472.5 26.5811ZM461.218 117V35.321H483.783V117H461.218ZM505.117 93.6404V54.2311H491.61V35.321H505.117V12.4382H527.524V35.321H546.275V54.2311H527.524V89.9856C527.524 95.7063 529.748 98.0899 535.628 98.0899H546.751V117H528.477C512.904 117 505.117 109.213 505.117 93.6404ZM645.624 26.2632V5.76404H733.818V26.2632H701.559V117H677.723V26.2632H645.624ZM793.813 76.1605V35.321H816.219V117H796.356L794.29 107.148C789.046 113.504 781.895 117.953 770.295 117.953C753.45 117.953 737.877 109.531 737.877 80.6099V35.321H760.283V77.5907C760.283 92.2103 765.051 99.3612 776.174 99.3612C787.298 99.3612 793.813 91.2568 793.813 76.1605ZM838.298 93.6404V54.2311H824.79V35.321H838.298V12.4382H860.704V35.321H879.455V54.2311H860.704V89.9856C860.704 95.7063 862.928 98.0899 868.808 98.0899H879.932V117H861.657C846.084 117 838.298 109.213 838.298 93.6404ZM928.946 117.953C902.885 117.953 885.882 101.268 885.882 76.1605C885.882 51.053 902.885 34.3676 928.946 34.3676C955.007 34.3676 972.011 51.053 972.011 76.1605C972.011 101.427 955.007 117.953 928.946 117.953ZM928.946 99.679C941.5 99.679 949.287 89.9856 949.287 76.1605C949.287 62.3355 941.5 52.642 928.946 52.642C916.393 52.642 908.765 62.3355 908.765 76.1605C908.765 89.9856 916.393 99.679 928.946 99.679ZM1030.27 35.321H1034.08V55.6613H1025.18C1011.83 55.6613 1006.75 64.5602 1006.75 76.9551V117H984.343V35.321H1004.68L1006.75 47.557C1011.2 40.2472 1017.56 35.321 1030.27 35.321ZM1055.37 26.5811C1048.06 26.5811 1042.34 21.1782 1042.34 14.0273C1042.34 6.71749 1048.06 1.3146 1055.37 1.3146C1062.68 1.3146 1068.4 6.71749 1068.4 14.0273C1068.4 21.1782 1062.68 26.5811 1055.37 26.5811ZM1044.09 117V35.321H1066.65V117H1044.09ZM1159.97 98.0899H1162.52V117H1151.08C1139.48 117 1135.82 111.438 1135.98 103.652C1130.26 112.709 1122 117.953 1109.28 117.953C1091.64 117.953 1078.93 109.531 1078.93 93.9583C1078.93 76.6372 1091.96 66.7849 1116.43 66.7849H1132.64V62.8122C1132.64 55.5024 1127.4 50.7351 1118.02 50.7351C1109.28 50.7351 1103.4 54.7079 1102.45 60.7464H1080.84C1082.43 44.8555 1097.05 34.3676 1118.66 34.3676C1141.54 34.3676 1154.73 44.5377 1154.73 64.0835V93.0048C1154.73 97.2953 1156.48 98.0899 1159.97 98.0899ZM1132.64 83.3114V81.7223H1116.27C1106.9 81.7223 1101.5 85.5361 1101.5 92.3692C1101.5 98.0899 1106.1 101.745 1113.57 101.745C1125.33 101.745 1132.48 94.435 1132.64 83.3114ZM1171.18 117V5.76404H1193.59V117H1171.18ZM1205.39 89.8266H1226.68C1227.48 96.9775 1233.68 101.904 1244.64 101.904C1254.02 101.904 1259.74 98.8844 1259.74 93.1637C1259.74 86.4896 1254.18 86.0128 1240.99 84.2648C1221.92 82.0401 1207.14 77.7496 1207.14 60.9053C1207.14 44.6966 1221.28 34.0498 1242.26 34.2087C1264.19 34.2087 1279.28 43.9021 1280.4 60.5875H1258.94C1258.31 54.0722 1252.11 50.0995 1243.05 50.0995C1234.31 50.0995 1228.59 53.2777 1228.59 58.5217C1228.59 64.7191 1235.58 65.3547 1247.34 66.7849C1266.09 68.6918 1281.67 72.9823 1281.67 91.4157C1281.67 107.624 1266.41 117.953 1244.48 117.953C1221.76 117.953 1206.34 107.307 1205.39 89.8266Z" fill="#2D2DF1"/>
<path d="M1.10433 137.658H0.104334V138.658H1.10433V137.658ZM1.10433 0.996786V-0.00321409H0.104334V0.996786H1.10433ZM43.5329 0.996786H44.5329V-0.00321409H43.5329V0.996786ZM43.5329 20.5425V21.5425H44.5329V20.5425H43.5329ZM22.2392 20.5425V19.5425H21.2392V20.5425H22.2392ZM22.2392 118.112H21.2392V119.112H22.2392V118.112ZM43.5329 118.112H44.5329V117.112H43.5329V118.112ZM43.5329 137.658V138.658H44.5329V137.658H43.5329ZM2.10433 137.658V0.996786H0.104334V137.658H2.10433ZM1.10433 1.99679H43.5329V-0.00321409H1.10433V1.99679ZM42.5329 0.996786V20.5425H44.5329V0.996786H42.5329ZM43.5329 19.5425H22.2392V21.5425H43.5329V19.5425ZM21.2392 20.5425V118.112H23.2392V20.5425H21.2392ZM22.2392 119.112H43.5329V117.112H22.2392V119.112ZM42.5329 118.112V137.658H44.5329V118.112H42.5329ZM43.5329 136.658H1.10433V138.658H43.5329V136.658ZM133.646 98.0899H134.646V97.0899H133.646V98.0899ZM133.646 117V118H134.646V117H133.646ZM107.109 103.652L108.109 103.672L108.182 100.08L106.263 103.118L107.109 103.652ZM103.772 66.7849V67.7849H104.772V66.7849H103.772ZM73.579 60.7464V61.7464H74.4335L74.5668 60.9024L73.579 60.7464ZM51.9675 60.7464L50.9724 60.6469L50.8625 61.7464H51.9675V60.7464ZM103.772 83.3114L104.772 83.3257L104.772 83.3185V83.3114H103.772ZM103.772 81.7223H104.772V80.7223H103.772V81.7223ZM131.104 99.0899H133.646V97.0899H131.104V99.0899ZM132.646 98.0899V117H134.646V98.0899H132.646ZM133.646 116H122.205V118H133.646V116ZM122.205 116C116.546 116 113.04 114.642 110.957 112.542C108.877 110.444 108.032 107.42 108.109 103.672L106.109 103.631C106.027 107.67 106.929 111.32 109.537 113.95C112.142 116.577 116.264 118 122.205 118V116ZM106.263 103.118C103.474 107.534 100.092 110.979 95.8944 113.326C91.6973 115.673 86.627 116.953 80.4121 116.953V118.953C86.9099 118.953 92.3276 117.612 96.8704 115.072C101.413 112.533 105.023 108.827 107.954 104.186L106.263 103.118ZM80.4121 116.953C71.7366 116.953 64.3824 114.881 59.2232 110.997C54.0972 107.138 51.0606 101.438 51.0606 93.9583H49.0606C49.0606 102.051 52.3803 108.349 58.0204 112.595C63.6272 116.815 71.4487 118.953 80.4121 118.953V116.953ZM51.0606 93.9583C51.0606 85.5801 54.1943 79.1022 60.2258 74.6828C66.3044 70.2291 75.4387 67.7849 87.563 67.7849V65.7849C75.2154 65.7849 65.5984 68.2669 59.0438 73.0696C52.4421 77.9066 49.0606 85.0154 49.0606 93.9583H51.0606ZM87.563 67.7849H103.772V65.7849H87.563V67.7849ZM104.772 66.7849V62.8122H102.772V66.7849H104.772ZM104.772 62.8122C104.772 58.9019 103.359 55.5888 100.624 53.2698C97.9094 50.9674 93.9992 49.7351 89.1521 49.7351V51.7351C93.6805 51.7351 97.0801 52.8865 99.3309 54.7952C101.562 56.6873 102.772 59.4127 102.772 62.8122H104.772ZM89.1521 49.7351C80.1635 49.7351 73.6541 53.8592 72.5913 60.5904L74.5668 60.9024C75.4109 55.5565 80.6607 51.7351 89.1521 51.7351V49.7351ZM73.579 59.7464H51.9675V61.7464H73.579V59.7464ZM52.9625 60.8459C54.48 45.6705 68.4546 35.3676 89.7877 35.3676V33.3676C67.8976 33.3676 52.6331 44.0405 50.9724 60.6469L52.9625 60.8459ZM89.7877 35.3676C101.1 35.3676 109.861 37.8839 115.776 42.673C121.656 47.4346 124.86 54.5532 124.86 64.0835H126.86C126.86 54.068 123.469 46.3286 117.034 41.1187C110.634 35.9363 101.358 33.3676 89.7877 33.3676V35.3676ZM124.86 64.0835V93.0048H126.86V64.0835H124.86ZM124.86 93.0048C124.86 95.2392 125.307 96.8953 126.527 97.9217C127.702 98.9094 129.351 99.0899 131.104 99.0899V97.0899C129.361 97.0899 128.388 96.8731 127.815 96.3909C127.287 95.9474 126.86 95.061 126.86 93.0048H124.86ZM104.772 83.3114V81.7223H102.772V83.3114H104.772ZM103.772 80.7223H87.4041V82.7223H103.772V80.7223ZM87.4041 80.7223C82.602 80.7223 78.6725 81.6957 75.9165 83.6705C73.1142 85.6785 71.6256 88.6525 71.6256 92.3692H73.6256C73.6256 89.2528 74.8384 86.9034 77.0814 85.2962C79.3708 83.6558 82.8305 82.7223 87.4041 82.7223V80.7223ZM71.6256 92.3692C71.6256 95.5259 72.9106 98.1651 75.2478 99.9904C77.5588 101.795 80.8175 102.745 84.7026 102.745V100.745C81.1191 100.745 78.3392 99.867 76.4788 98.4141C74.6448 96.9818 73.6256 94.9332 73.6256 92.3692H71.6256ZM84.7026 102.745C90.7927 102.745 95.7895 100.848 99.2878 97.413C102.786 93.9786 104.689 89.1016 104.772 83.3257L102.772 83.2971C102.695 88.6448 100.944 92.9844 97.8867 95.9859C94.83 98.987 90.3718 100.745 84.7026 100.745V102.745ZM142.314 117H141.314V118H142.314V117ZM142.314 5.76404V4.76404H141.314V5.76404H142.314ZM164.721 5.76404H165.721V4.76404H164.721V5.76404ZM164.721 117V118H165.721V117H164.721ZM143.314 117V5.76404H141.314V117H143.314ZM142.314 6.76404H164.721V4.76404H142.314V6.76404ZM163.721 5.76404V117H165.721V5.76404H163.721ZM164.721 116H142.314V118H164.721V116ZM240.402 46.6035L239.604 47.2064L241.002 49.056L241.388 46.7702L240.402 46.6035ZM242.309 35.321V34.321H241.464L241.323 35.1544L242.309 35.321ZM262.013 35.321H263.013V34.321H262.013V35.321ZM178.904 120.496V119.496H177.844L177.906 120.555L178.904 120.496ZM201.469 120.496L202.436 120.24L202.239 119.496H201.469V120.496ZM240.084 105.241H241.084V102.364L239.3 104.621L240.084 105.241ZM215.135 116.523L215.135 115.523L215.128 115.523L215.135 116.523ZM241.388 46.7702L243.295 35.4877L241.323 35.1544L239.416 46.4369L241.388 46.7702ZM242.309 36.321H262.013V34.321H242.309V36.321ZM261.013 35.321V114.616H263.013V35.321H261.013ZM261.013 114.616C261.013 124.499 257.985 132.976 251.237 138.998C244.472 145.035 233.821 148.735 218.314 148.735V150.735C234.111 150.735 245.31 146.967 252.569 140.49C259.844 133.998 263.013 124.916 263.013 114.616H261.013ZM218.314 148.735C207.089 148.735 197.741 146.183 191.089 141.395C184.466 136.629 180.442 129.599 179.903 120.437L177.906 120.555C178.479 130.303 182.797 137.892 189.921 143.019C197.014 148.123 206.814 150.735 218.314 150.735V148.735ZM178.904 121.496H201.469V119.496H178.904V121.496ZM200.503 120.752C201.59 124.852 203.786 128.127 207.108 130.363C210.416 132.59 214.759 133.732 220.062 133.732V131.732C215.035 131.732 211.115 130.649 208.225 128.704C205.35 126.769 203.414 123.926 202.436 120.24L200.503 120.752ZM220.062 133.732C226.489 133.732 231.772 132.146 235.455 128.783C239.153 125.405 241.084 120.376 241.084 113.822H239.084C239.084 119.98 237.281 124.406 234.106 127.306C230.916 130.219 226.188 131.732 220.062 131.732V133.732ZM241.084 113.822V105.241H239.084V113.822H241.084ZM239.3 104.621C234.093 111.206 226.281 115.523 215.135 115.523V117.523C226.873 117.523 235.27 112.942 240.869 105.861L239.3 104.621ZM215.128 115.523C204.419 115.601 195.198 111.726 188.649 104.793C182.098 97.8555 178.156 87.7856 178.156 75.366H176.156C176.156 88.2128 180.24 98.801 187.195 106.166C194.154 113.534 203.923 117.605 215.143 117.523L215.128 115.523ZM178.156 75.366C178.156 63.1085 182.096 53.0758 188.631 46.1161C195.164 39.1595 204.349 35.2087 214.977 35.2087V33.2087C203.833 33.2087 194.108 37.3621 187.174 44.747C180.242 52.1288 176.156 62.6748 176.156 75.366H178.156ZM214.977 35.2087C226.392 35.2087 234.371 40.2808 239.604 47.2064L241.2 46.0007C235.627 38.6245 227.079 33.2087 214.977 33.2087V35.2087ZM220.062 99.5666C226.455 99.5666 231.706 97.1072 235.343 92.839C238.966 88.5872 240.925 82.619 240.925 75.6838H238.925C238.925 82.2558 237.07 87.729 233.821 91.5418C230.585 95.3382 225.904 97.5666 220.062 97.5666V99.5666ZM240.925 75.6838C240.925 68.6723 238.968 62.5893 235.351 58.2398C231.718 53.8721 226.467 51.3242 220.062 51.3242V53.3242C225.893 53.3242 230.573 55.6231 233.813 59.5187C237.068 63.4324 238.925 69.0291 238.925 75.6838H240.925ZM220.062 51.3242C213.663 51.3242 208.374 53.8269 204.7 58.1523C201.039 62.462 199.039 68.5081 199.039 75.5249H201.039C201.039 68.8755 202.933 63.3213 206.224 59.4472C209.502 55.5888 214.224 53.3242 220.062 53.3242V51.3242ZM199.039 75.5249C199.039 82.5419 201.039 88.5505 204.703 92.8216C208.38 97.108 213.669 99.5666 220.062 99.5666V97.5666C214.218 97.5666 209.496 95.3375 206.221 91.5194C202.933 87.6863 201.039 82.1739 201.039 75.5249H199.039ZM317.521 116.953C304.707 116.953 294.206 112.855 286.914 105.756C279.624 98.6589 275.457 88.4819 275.457 76.1605H273.457C273.457 88.9467 277.791 99.6662 285.518 107.189C293.243 114.709 304.274 118.953 317.521 118.953V116.953ZM275.457 76.1605C275.457 63.8392 279.624 53.6622 286.914 46.5652C294.206 39.466 304.707 35.3676 317.521 35.3676V33.3676C304.274 33.3676 293.243 37.6118 285.518 45.1322C277.791 52.6548 273.457 63.3743 273.457 76.1605H275.457ZM317.521 35.3676C330.335 35.3676 340.836 39.466 348.128 46.5652C355.418 53.6622 359.585 63.8392 359.585 76.1605H361.585C361.585 63.3743 357.251 52.6548 349.524 45.1322C341.799 37.6118 330.768 33.3676 317.521 33.3676V35.3676ZM359.585 76.1605C359.585 88.5627 355.417 98.7385 348.129 105.814C340.839 112.893 330.338 116.953 317.521 116.953V118.953C330.765 118.953 341.797 114.751 349.523 107.249C357.251 99.7454 361.585 89.0248 361.585 76.1605H359.585ZM317.521 100.679C324.076 100.679 329.446 98.138 333.162 93.7504C336.863 89.3798 338.861 83.2538 338.861 76.1605H336.861C336.861 82.8922 334.966 88.5255 331.636 92.4579C328.32 96.3733 323.52 98.679 317.521 98.679V100.679ZM338.861 76.1605C338.861 69.0672 336.863 62.9412 333.162 58.5706C329.446 54.1831 324.076 51.642 317.521 51.642V53.642C323.52 53.642 328.32 55.9478 331.636 59.8632C334.966 63.7955 336.861 69.4288 336.861 76.1605H338.861ZM317.521 51.642C310.965 51.642 305.632 54.1841 301.956 58.5749C298.295 62.9469 296.34 69.0721 296.34 76.1605H298.34C298.34 69.4239 300.198 63.7899 303.489 59.8589C306.765 55.9467 311.523 53.642 317.521 53.642V51.642ZM296.34 76.1605C296.34 83.2489 298.295 89.3742 301.956 93.7461C305.632 98.1369 310.965 100.679 317.521 100.679V98.679C311.523 98.679 306.765 96.3743 303.489 92.4621C300.198 88.5311 298.34 82.8972 298.34 76.1605H296.34ZM372.918 117H371.918V118H372.918V117ZM372.918 5.76404V4.76404H371.918V5.76404H372.918ZM395.324 5.76404H396.324V4.76404H395.324V5.76404ZM395.324 69.9631H394.324V72.5229L396.059 70.6409L395.324 69.9631ZM427.265 35.321V34.321H426.826L426.529 34.6432L427.265 35.321ZM452.531 35.321L453.269 35.9964L454.803 34.321H452.531V35.321ZM423.133 67.4205L422.396 66.7452L421.882 67.3058L422.285 67.9505L423.133 67.4205ZM454.12 117V118H455.924L454.968 116.47L454.12 117ZM428.218 117L427.37 117.53L427.664 118H428.218V117ZM407.56 83.947L408.408 83.417L407.716 82.3091L406.827 83.2669L407.56 83.947ZM395.324 97.1364L394.591 96.4563L394.324 96.744V97.1364H395.324ZM395.324 117V118H396.324V117H395.324ZM373.918 117V5.76404H371.918V117H373.918ZM372.918 6.76404H395.324V4.76404H372.918V6.76404ZM394.324 5.76404V69.9631H396.324V5.76404H394.324ZM396.059 70.6409L428 35.9989L426.529 34.6432L394.589 69.2852L396.059 70.6409ZM427.265 36.321H452.531V34.321H427.265V36.321ZM451.794 34.6456L422.396 66.7452L423.871 68.0959L453.269 35.9964L451.794 34.6456ZM422.285 67.9505L453.272 117.53L454.968 116.47L423.981 66.8905L422.285 67.9505ZM454.12 116H428.218V118H454.12V116ZM429.066 116.47L408.408 83.417L406.712 84.477L427.37 117.53L429.066 116.47ZM406.827 83.2669L394.591 96.4563L396.057 97.8165L408.293 84.6271L406.827 83.2669ZM394.324 97.1364V117H396.324V97.1364H394.324ZM395.324 116H372.918V118H395.324V116ZM461.218 117H460.218V118H461.218V117ZM461.218 35.321V34.321H460.218V35.321H461.218ZM483.783 35.321H484.783V34.321H483.783V35.321ZM483.783 117V118H484.783V117H483.783ZM472.5 25.5811C465.701 25.5811 460.47 20.5855 460.47 14.0273H458.47C458.47 21.7708 464.679 27.5811 472.5 27.5811V25.5811ZM460.47 14.0273C460.47 7.302 465.71 2.3146 472.5 2.3146V0.314599C464.671 0.314599 458.47 6.13298 458.47 14.0273H460.47ZM472.5 2.3146C479.29 2.3146 484.531 7.302 484.531 14.0273H486.531C486.531 6.13298 480.329 0.314599 472.5 0.314599V2.3146ZM484.531 14.0273C484.531 20.5855 479.299 25.5811 472.5 25.5811V27.5811C480.321 27.5811 486.531 21.7708 486.531 14.0273H484.531ZM462.218 117V35.321H460.218V117H462.218ZM461.218 36.321H483.783V34.321H461.218V36.321ZM482.783 35.321V117H484.783V35.321H482.783ZM483.783 116H461.218V118H483.783V116ZM505.117 54.2311H506.117V53.2311H505.117V54.2311ZM491.61 54.2311H490.61V55.2311H491.61V54.2311ZM491.61 35.321V34.321H490.61V35.321H491.61ZM505.117 35.321V36.321H506.117V35.321H505.117ZM505.117 12.4382V11.4382H504.117V12.4382H505.117ZM527.524 12.4382H528.524V11.4382H527.524V12.4382ZM527.524 35.321H526.524V36.321H527.524V35.321ZM546.275 35.321H547.275V34.321H546.275V35.321ZM546.275 54.2311V55.2311H547.275V54.2311H546.275ZM527.524 54.2311V53.2311H526.524V54.2311H527.524ZM546.751 98.0899H547.751V97.0899H546.751V98.0899ZM546.751 117V118H547.751V117H546.751ZM506.117 93.6404V54.2311H504.117V93.6404H506.117ZM505.117 53.2311H491.61V55.2311H505.117V53.2311ZM492.61 54.2311V35.321H490.61V54.2311H492.61ZM491.61 36.321H505.117V34.321H491.61V36.321ZM506.117 35.321V12.4382H504.117V35.321H506.117ZM505.117 13.4382H527.524V11.4382H505.117V13.4382ZM526.524 12.4382V35.321H528.524V12.4382H526.524ZM527.524 36.321H546.275V34.321H527.524V36.321ZM545.275 35.321V54.2311H547.275V35.321H545.275ZM546.275 53.2311H527.524V55.2311H546.275V53.2311ZM526.524 54.2311V89.9856H528.524V54.2311H526.524ZM526.524 89.9856C526.524 92.9389 527.091 95.2932 528.658 96.8847C530.229 98.4794 532.587 99.0899 535.628 99.0899V97.0899C532.789 97.0899 531.095 96.5085 530.083 95.4813C529.068 94.4508 528.524 92.7529 528.524 89.9856H526.524ZM535.628 99.0899H546.751V97.0899H535.628V99.0899ZM545.751 98.0899V117H547.751V98.0899H545.751ZM546.751 116H528.477V118H546.751V116ZM528.477 116C520.845 116 515.304 114.093 511.664 110.453C508.025 106.813 506.117 101.273 506.117 93.6404H504.117C504.117 101.581 506.103 107.72 510.25 111.867C514.397 116.014 520.536 118 528.477 118V116ZM594.912 0.996786H595.912V-0.00321409H594.912V0.996786ZM594.912 137.658V138.658H595.912V137.658H594.912ZM552.483 137.658H551.483V138.658H552.483V137.658ZM552.483 118.112V117.112H551.483V118.112H552.483ZM573.777 118.112V119.112H574.777V118.112H573.777ZM573.777 20.5425H574.777V19.5425H573.777V20.5425ZM552.483 20.5425H551.483V21.5425H552.483V20.5425ZM552.483 0.996786V-0.00321409H551.483V0.996786H552.483ZM593.912 0.996786V137.658H595.912V0.996786H593.912ZM594.912 136.658H552.483V138.658H594.912V136.658ZM553.483 137.658V118.112H551.483V137.658H553.483ZM552.483 119.112H573.777V117.112H552.483V119.112ZM574.777 118.112V20.5425H572.777V118.112H574.777ZM573.777 19.5425H552.483V21.5425H573.777V19.5425ZM553.483 20.5425V0.996786H551.483V20.5425H553.483ZM552.483 1.99679H594.912V-0.00321409H552.483V1.99679ZM645.624 26.2632H644.624V27.2632H645.624V26.2632ZM645.624 5.76404V4.76404H644.624V5.76404H645.624ZM733.818 5.76404H734.818V4.76404H733.818V5.76404ZM733.818 26.2632V27.2632H734.818V26.2632H733.818ZM701.559 26.2632V25.2632H700.559V26.2632H701.559ZM701.559 117V118H702.559V117H701.559ZM677.723 117H676.723V118H677.723V117ZM677.723 26.2632H678.723V25.2632H677.723V26.2632ZM646.624 26.2632V5.76404H644.624V26.2632H646.624ZM645.624 6.76404H733.818V4.76404H645.624V6.76404ZM732.818 5.76404V26.2632H734.818V5.76404H732.818ZM733.818 25.2632H701.559V27.2632H733.818V25.2632ZM700.559 26.2632V117H702.559V26.2632H700.559ZM701.559 116H677.723V118H701.559V116ZM678.723 117V26.2632H676.723V117H678.723ZM677.723 25.2632H645.624V27.2632H677.723V25.2632ZM793.813 35.321V34.321H792.813V35.321H793.813ZM816.219 35.321H817.219V34.321H816.219V35.321ZM816.219 117V118H817.219V117H816.219ZM796.356 117L795.377 117.205L795.544 118H796.356V117ZM794.29 107.148L795.269 106.942L794.842 104.907L793.519 106.511L794.29 107.148ZM737.877 35.321V34.321H736.877V35.321H737.877ZM760.283 35.321H761.283V34.321H760.283V35.321ZM794.813 76.1605V35.321H792.813V76.1605H794.813ZM793.813 36.321H816.219V34.321H793.813V36.321ZM815.219 35.321V117H817.219V35.321H815.219ZM816.219 116H796.356V118H816.219V116ZM797.334 116.795L795.269 106.942L793.311 107.353L795.377 117.205L797.334 116.795ZM793.519 106.511C788.45 112.655 781.575 116.953 770.295 116.953V118.953C782.215 118.953 789.642 114.353 795.061 107.784L793.519 106.511ZM770.295 116.953C762.025 116.953 754.208 114.886 748.46 109.404C742.72 103.93 738.877 94.8962 738.877 80.6099H736.877C736.877 95.245 740.821 104.883 747.079 110.851C753.328 116.81 761.72 118.953 770.295 118.953V116.953ZM738.877 80.6099V35.321H736.877V80.6099H738.877ZM737.877 36.321H760.283V34.321H737.877V36.321ZM759.283 35.321V77.5907H761.283V35.321H759.283ZM759.283 77.5907C759.283 84.972 760.48 90.6698 763.244 94.5395C766.059 98.4809 770.376 100.361 776.174 100.361V98.3612C770.849 98.3612 767.221 96.6659 764.871 93.377C762.471 90.0164 761.283 84.8289 761.283 77.5907H759.283ZM776.174 100.361C782.004 100.361 786.724 98.2228 789.957 94.0328C793.16 89.8811 794.813 83.8331 794.813 76.1605H792.813C792.813 83.5842 791.209 89.1365 788.373 92.8111C785.568 96.4473 781.468 98.3612 776.174 98.3612V100.361ZM838.298 54.2311H839.298V53.2311H838.298V54.2311ZM824.79 54.2311H823.79V55.2311H824.79V54.2311ZM824.79 35.321V34.321H823.79V35.321H824.79ZM838.298 35.321V36.321H839.298V35.321H838.298ZM838.298 12.4382V11.4382H837.298V12.4382H838.298ZM860.704 12.4382H861.704V11.4382H860.704V12.4382ZM860.704 35.321H859.704V36.321H860.704V35.321ZM879.455 35.321H880.455V34.321H879.455V35.321ZM879.455 54.2311V55.2311H880.455V54.2311H879.455ZM860.704 54.2311V53.2311H859.704V54.2311H860.704ZM879.932 98.0899H880.932V97.0899H879.932V98.0899ZM879.932 117V118H880.932V117H879.932ZM839.298 93.6404V54.2311H837.298V93.6404H839.298ZM838.298 53.2311H824.79V55.2311H838.298V53.2311ZM825.79 54.2311V35.321H823.79V54.2311H825.79ZM824.79 36.321H838.298V34.321H824.79V36.321ZM839.298 35.321V12.4382H837.298V35.321H839.298ZM838.298 13.4382H860.704V11.4382H838.298V13.4382ZM859.704 12.4382V35.321H861.704V12.4382H859.704ZM860.704 36.321H879.455V34.321H860.704V36.321ZM878.455 35.321V54.2311H880.455V35.321H878.455ZM879.455 53.2311H860.704V55.2311H879.455V53.2311ZM859.704 54.2311V89.9856H861.704V54.2311H859.704ZM859.704 89.9856C859.704 92.9389 860.271 95.2932 861.839 96.8847C863.409 98.4794 865.767 99.0899 868.808 99.0899V97.0899C865.969 97.0899 864.275 96.5085 863.264 95.4813C862.249 94.4508 861.704 92.7529 861.704 89.9856H859.704ZM868.808 99.0899H879.932V97.0899H868.808V99.0899ZM878.932 98.0899V117H880.932V98.0899H878.932ZM879.932 116H861.657V118H879.932V116ZM861.657 116C854.025 116 848.484 114.093 844.845 110.453C841.205 106.813 839.298 101.273 839.298 93.6404H837.298C837.298 101.581 839.284 107.72 843.43 111.867C847.577 116.014 853.717 118 861.657 118V116ZM928.946 116.953C916.132 116.953 905.631 112.855 898.339 105.756C891.049 98.6589 886.882 88.4819 886.882 76.1605H884.882C884.882 88.9467 889.217 99.6662 896.944 107.189C904.669 114.709 915.7 118.953 928.946 118.953V116.953ZM886.882 76.1605C886.882 63.8392 891.049 53.6622 898.339 46.5652C905.631 39.466 916.132 35.3676 928.946 35.3676V33.3676C915.7 33.3676 904.669 37.6118 896.944 45.1322C889.217 52.6548 884.882 63.3743 884.882 76.1605H886.882ZM928.946 35.3676C941.761 35.3676 952.262 39.466 959.554 46.5652C966.843 53.6622 971.011 63.8392 971.011 76.1605H973.011C973.011 63.3743 968.676 52.6548 960.949 45.1322C953.224 37.6118 942.193 33.3676 928.946 33.3676V35.3676ZM971.011 76.1605C971.011 88.5627 966.843 98.7385 959.555 105.814C952.264 112.893 941.763 116.953 928.946 116.953V118.953C942.19 118.953 953.222 114.751 960.948 107.249C968.677 99.7454 973.011 89.0248 973.011 76.1605H971.011ZM928.946 100.679C935.501 100.679 940.871 98.138 944.587 93.7504C948.289 89.3798 950.287 83.2538 950.287 76.1605H948.287C948.287 82.8922 946.391 88.5255 943.061 92.4579C939.745 96.3733 934.945 98.679 928.946 98.679V100.679ZM950.287 76.1605C950.287 69.0672 948.289 62.9412 944.587 58.5706C940.871 54.1831 935.501 51.642 928.946 51.642V53.642C934.945 53.642 939.745 55.9478 943.061 59.8632C946.391 63.7955 948.287 69.4288 948.287 76.1605H950.287ZM928.946 51.642C922.39 51.642 917.058 54.1841 913.381 58.5749C909.72 62.9469 907.765 69.0721 907.765 76.1605H909.765C909.765 69.4239 911.623 63.7899 914.915 59.8589C918.19 55.9467 922.949 53.642 928.946 53.642V51.642ZM907.765 76.1605C907.765 83.2489 909.72 89.3742 913.381 93.7461C917.058 98.1369 922.39 100.679 928.946 100.679V98.679C922.949 98.679 918.19 96.3743 914.915 92.4621C911.623 88.5311 909.765 82.8972 909.765 76.1605H907.765ZM1034.08 35.321H1035.08V34.321H1034.08V35.321ZM1034.08 55.6613V56.6613H1035.08V55.6613H1034.08ZM1006.75 117V118H1007.75V117H1006.75ZM984.343 117H983.343V118H984.343V117ZM984.343 35.321V34.321H983.343V35.321H984.343ZM1004.68 35.321L1005.67 35.1546L1005.53 34.321H1004.68V35.321ZM1006.75 47.557L1005.76 47.7235L1006.21 50.367L1007.6 48.0769L1006.75 47.557ZM1030.27 36.321H1034.08V34.321H1030.27V36.321ZM1033.08 35.321V55.6613H1035.08V35.321H1033.08ZM1034.08 54.6613H1025.18V56.6613H1034.08V54.6613ZM1025.18 54.6613C1018.27 54.6613 1013.34 56.9804 1010.17 61.0456C1007.04 65.066 1005.75 70.6454 1005.75 76.9551H1007.75C1007.75 70.8699 1009 65.8023 1011.75 62.2746C1014.46 58.7917 1018.75 56.6613 1025.18 56.6613V54.6613ZM1005.75 76.9551V117H1007.75V76.9551H1005.75ZM1006.75 116H984.343V118H1006.75V116ZM985.343 117V35.321H983.343V117H985.343ZM984.343 36.321H1004.68V34.321H984.343V36.321ZM1003.7 35.4875L1005.76 47.7235L1007.74 47.3905L1005.67 35.1546L1003.7 35.4875ZM1007.6 48.0769C1009.77 44.5198 1012.36 41.603 1015.91 39.5649C1019.46 37.5263 1024.04 36.321 1030.27 36.321V34.321C1023.78 34.321 1018.83 35.5789 1014.91 37.8307C1010.99 40.0832 1008.18 43.2843 1005.9 47.037L1007.6 48.0769ZM1044.09 117H1043.09V118H1044.09V117ZM1044.09 35.321V34.321H1043.09V35.321H1044.09ZM1066.65 35.321H1067.65V34.321H1066.65V35.321ZM1066.65 117V118H1067.65V117H1066.65ZM1055.37 25.5811C1048.57 25.5811 1043.34 20.5855 1043.34 14.0273H1041.34C1041.34 21.7708 1047.55 27.5811 1055.37 27.5811V25.5811ZM1043.34 14.0273C1043.34 7.302 1048.58 2.3146 1055.37 2.3146V0.314599C1047.54 0.314599 1041.34 6.13298 1041.34 14.0273H1043.34ZM1055.37 2.3146C1062.16 2.3146 1067.4 7.302 1067.4 14.0273H1069.4C1069.4 6.13298 1063.2 0.314599 1055.37 0.314599V2.3146ZM1067.4 14.0273C1067.4 20.5855 1062.17 25.5811 1055.37 25.5811V27.5811C1063.19 27.5811 1069.4 21.7708 1069.4 14.0273H1067.4ZM1045.09 117V35.321H1043.09V117H1045.09ZM1044.09 36.321H1066.65V34.321H1044.09V36.321ZM1065.65 35.321V117H1067.65V35.321H1065.65ZM1066.65 116H1044.09V118H1066.65V116ZM1162.52 98.0899H1163.52V97.0899H1162.52V98.0899ZM1162.52 117V118H1163.52V117H1162.52ZM1135.98 103.652L1136.98 103.672L1137.05 100.08L1135.13 103.118L1135.98 103.652ZM1132.64 66.7849V67.7849H1133.64V66.7849H1132.64ZM1102.45 60.7464V61.7464H1103.3L1103.44 60.9024L1102.45 60.7464ZM1080.84 60.7464L1079.84 60.6469L1079.73 61.7464H1080.84V60.7464ZM1132.64 83.3114L1133.64 83.3257L1133.64 83.3185V83.3114H1132.64ZM1132.64 81.7223H1133.64V80.7223H1132.64V81.7223ZM1159.97 99.0899H1162.52V97.0899H1159.97V99.0899ZM1161.52 98.0899V117H1163.52V98.0899H1161.52ZM1162.52 116H1151.08V118H1162.52V116ZM1151.08 116C1145.42 116 1141.91 114.642 1139.83 112.542C1137.75 110.444 1136.9 107.42 1136.98 103.672L1134.98 103.631C1134.9 107.67 1135.8 111.32 1138.41 113.95C1141.01 116.577 1145.13 118 1151.08 118V116ZM1135.13 103.118C1132.34 107.534 1128.96 110.979 1124.76 113.326C1120.57 115.673 1115.5 116.953 1109.28 116.953V118.953C1115.78 118.953 1121.2 117.612 1125.74 115.072C1130.28 112.533 1133.89 108.827 1136.82 104.186L1135.13 103.118ZM1109.28 116.953C1100.61 116.953 1093.25 114.881 1088.09 110.997C1082.97 107.138 1079.93 101.438 1079.93 93.9583H1077.93C1077.93 102.051 1081.25 108.349 1086.89 112.595C1092.5 116.815 1100.32 118.953 1109.28 118.953V116.953ZM1079.93 93.9583C1079.93 85.5801 1083.06 79.1022 1089.1 74.6828C1095.17 70.2291 1104.31 67.7849 1116.43 67.7849V65.7849C1104.09 65.7849 1094.47 68.2669 1087.91 73.0696C1081.31 77.9066 1077.93 85.0154 1077.93 93.9583H1079.93ZM1116.43 67.7849H1132.64V65.7849H1116.43V67.7849ZM1133.64 66.7849V62.8122H1131.64V66.7849H1133.64ZM1133.64 62.8122C1133.64 58.9019 1132.23 55.5888 1129.5 53.2698C1126.78 50.9674 1122.87 49.7351 1118.02 49.7351V51.7351C1122.55 51.7351 1125.95 52.8865 1128.2 54.7952C1130.43 56.6873 1131.64 59.4127 1131.64 62.8122H1133.64ZM1118.02 49.7351C1109.03 49.7351 1102.52 53.8592 1101.46 60.5904L1103.44 60.9024C1104.28 55.5565 1109.53 51.7351 1118.02 51.7351V49.7351ZM1102.45 59.7464H1080.84V61.7464H1102.45V59.7464ZM1081.83 60.8459C1083.35 45.6705 1097.33 35.3676 1118.66 35.3676V33.3676C1096.77 33.3676 1081.5 44.0405 1079.84 60.6469L1081.83 60.8459ZM1118.66 35.3676C1129.97 35.3676 1138.73 37.8839 1144.65 42.673C1150.53 47.4346 1153.73 54.5532 1153.73 64.0835H1155.73C1155.73 54.068 1152.34 46.3286 1145.9 41.1187C1139.5 35.9363 1130.23 33.3676 1118.66 33.3676V35.3676ZM1153.73 64.0835V93.0048H1155.73V64.0835H1153.73ZM1153.73 93.0048C1153.73 95.2392 1154.18 96.8953 1155.4 97.9217C1156.57 98.9094 1158.22 99.0899 1159.97 99.0899V97.0899C1158.23 97.0899 1157.26 96.8731 1156.69 96.3909C1156.16 95.9474 1155.73 95.061 1155.73 93.0048H1153.73ZM1133.64 83.3114V81.7223H1131.64V83.3114H1133.64ZM1132.64 80.7223H1116.27V82.7223H1132.64V80.7223ZM1116.27 80.7223C1111.47 80.7223 1107.54 81.6957 1104.79 83.6705C1101.98 85.6785 1100.5 88.6525 1100.5 92.3692H1102.5C1102.5 89.2528 1103.71 86.9034 1105.95 85.2962C1108.24 83.6558 1111.7 82.7223 1116.27 82.7223V80.7223ZM1100.5 92.3692C1100.5 95.5259 1101.78 98.1651 1104.12 99.9904C1106.43 101.795 1109.69 102.745 1113.57 102.745V100.745C1109.99 100.745 1107.21 99.867 1105.35 98.4141C1103.52 96.9818 1102.5 94.9332 1102.5 92.3692H1100.5ZM1113.57 102.745C1119.66 102.745 1124.66 100.848 1128.16 97.413C1131.66 93.9786 1133.56 89.1016 1133.64 83.3257L1131.64 83.2971C1131.57 88.6448 1129.81 92.9844 1126.76 95.9859C1123.7 98.987 1119.24 100.745 1113.57 100.745V102.745ZM1171.18 117H1170.18V118H1171.18V117ZM1171.18 5.76404V4.76404H1170.18V5.76404H1171.18ZM1193.59 5.76404H1194.59V4.76404H1193.59V5.76404ZM1193.59 117V118H1194.59V117H1193.59ZM1172.18 117V5.76404H1170.18V117H1172.18ZM1171.18 6.76404H1193.59V4.76404H1171.18V6.76404ZM1192.59 5.76404V117H1194.59V5.76404H1192.59ZM1193.59 116H1171.18V118H1193.59V116ZM1205.39 89.8266V88.8266H1204.34L1204.39 89.8811L1205.39 89.8266ZM1226.68 89.8266L1227.68 89.7162L1227.58 88.8266H1226.68V89.8266ZM1240.99 84.2648L1241.12 83.2735L1241.11 83.2725L1241.1 83.2716L1240.99 84.2648ZM1242.26 34.2087L1242.25 35.2087H1242.26V34.2087ZM1280.4 60.5875V61.5875H1281.46L1281.39 60.521L1280.4 60.5875ZM1258.94 60.5875L1257.95 60.6846L1258.04 61.5875H1258.94V60.5875ZM1247.34 66.7849L1247.22 67.7776L1247.23 67.7788L1247.24 67.7798L1247.34 66.7849ZM1205.39 90.8266H1226.68V88.8266H1205.39V90.8266ZM1225.69 89.9371C1226.12 93.7946 1228.02 97.0725 1231.27 99.3645C1234.51 101.642 1239.02 102.904 1244.64 102.904V100.904C1239.3 100.904 1235.23 99.7027 1232.43 97.729C1229.64 95.7702 1228.04 93.0096 1227.68 89.7162L1225.69 89.9371ZM1244.64 102.904C1249.41 102.904 1253.38 102.14 1256.2 100.55C1259.07 98.9276 1260.74 96.4333 1260.74 93.1637H1258.74C1258.74 95.6149 1257.55 97.4905 1255.21 98.8083C1252.82 100.158 1249.25 100.904 1244.64 100.904V102.904ZM1260.74 93.1637C1260.74 91.356 1260.36 89.8494 1259.47 88.6192C1258.59 87.3957 1257.29 86.5605 1255.67 85.9339C1252.49 84.7073 1247.64 84.1374 1241.12 83.2735L1240.86 85.2562C1247.53 86.1402 1252.05 86.6828 1254.95 87.8C1256.36 88.3454 1257.28 88.99 1257.85 89.7877C1258.42 90.5786 1258.74 91.6344 1258.74 93.1637H1260.74ZM1241.1 83.2716C1231.57 82.1596 1223.29 80.5447 1217.41 77.1981C1214.48 75.5362 1212.18 73.4626 1210.6 70.8341C1209.03 68.2077 1208.14 64.9652 1208.14 60.9053H1206.14C1206.14 65.2676 1207.1 68.878 1208.89 71.8631C1210.68 74.8459 1213.26 77.1424 1216.42 78.9367C1222.69 82.5026 1231.33 84.1454 1240.87 85.2581L1241.1 83.2716ZM1208.14 60.9053C1208.14 53.1235 1211.52 46.7008 1217.44 42.216C1223.38 37.7139 1231.92 35.1304 1242.25 35.2086L1242.27 33.2087C1231.62 33.128 1222.6 35.7885 1216.23 40.6222C1209.83 45.4733 1206.14 52.4784 1206.14 60.9053H1208.14ZM1242.26 35.2087C1253.09 35.2087 1262.13 37.6043 1268.57 41.9689C1274.98 46.314 1278.86 52.6345 1279.4 60.654L1281.39 60.521C1280.82 51.855 1276.59 44.9861 1269.69 40.3132C1262.83 35.6598 1253.36 33.2087 1242.26 33.2087V35.2087ZM1280.4 59.5875H1258.94V61.5875H1280.4V59.5875ZM1259.94 60.4904C1259.59 56.9051 1257.7 54.0223 1254.7 52.0636C1251.74 50.1205 1247.72 49.0995 1243.05 49.0995V51.0995C1247.45 51.0995 1251.05 52.0649 1253.61 53.7369C1256.14 55.3934 1257.66 57.7546 1257.95 60.6846L1259.94 60.4904ZM1243.05 49.0995C1238.58 49.0995 1234.77 49.9094 1232.05 51.4771C1229.29 53.0641 1227.59 55.4656 1227.59 58.5217H1229.59C1229.59 56.3337 1230.76 54.5242 1233.04 53.2111C1235.36 51.8787 1238.78 51.0995 1243.05 51.0995V49.0995ZM1227.59 58.5217C1227.59 60.2776 1228.09 61.7251 1229.12 62.8869C1230.12 64.0223 1231.54 64.8015 1233.23 65.3861C1236.58 66.5426 1241.4 67.0699 1247.22 67.7776L1247.46 65.7922C1241.52 65.0697 1236.97 64.5641 1233.88 63.4959C1232.36 62.9682 1231.3 62.337 1230.62 61.5655C1229.96 60.8204 1229.59 59.8645 1229.59 58.5217H1227.59ZM1247.24 67.7798C1256.61 68.7326 1265 70.27 1271.04 73.7681C1274.03 75.5052 1276.43 77.7137 1278.08 80.5602C1279.73 83.4068 1280.67 86.9517 1280.67 91.4157H1282.67C1282.67 86.663 1281.66 82.7592 1279.81 79.5573C1277.95 76.3553 1275.28 73.9158 1272.04 72.0377C1265.6 68.3054 1256.83 66.7441 1247.44 65.79L1247.24 67.7798ZM1280.67 91.4157C1280.67 99.1641 1277.04 105.505 1270.72 109.945C1264.38 114.403 1255.3 116.953 1244.48 116.953V118.953C1255.59 118.953 1265.11 116.339 1271.87 111.581C1278.67 106.803 1282.67 99.8761 1282.67 91.4157H1280.67ZM1244.48 116.953C1233.26 116.953 1223.95 114.324 1217.35 109.63C1210.78 104.954 1206.85 98.1983 1206.39 89.7722L1204.39 89.8811C1204.89 98.9349 1209.14 106.242 1216.19 111.26C1223.22 116.259 1232.98 118.953 1244.48 118.953V116.953Z" fill="black" mask="url(#path-1-outside-1_411_2)"/>
</svg>
